<svg width="189" height="189" viewBox="0 0 189 189" fill="none" xmlns="http://www.w3.org/2000/svg">
<g clip-path="url(#clip0_18_4)">
<path d="M94.4059 188.936C119.427 188.936 143.422 178.997 161.118 161.304C178.811 143.611 188.75 119.615 188.75 94.5921C188.75 69.5689 178.811 45.5763 161.118 27.8798C143.424 10.1876 119.429 0.248238 94.4059 0.248238C69.3827 0.248238 45.39 10.1876 27.6936 27.8798C10.0013 45.5736 0.0620117 69.5689 0.0620117 94.5921C0.0899269 119.606 10.0378 143.585 27.7245 161.274C45.4107 178.961 69.391 188.909 94.4067 188.937L94.4059 188.936ZM59.3019 88.0119H87.8238V59.4901C87.8238 57.1378 89.0785 54.965 91.1149 53.7896C93.1512 52.6142 95.6607 52.6142 97.697 53.7896C99.7333 54.965 100.988 57.1379 100.988 59.4901V88.0119H129.51C131.862 88.0119 134.035 89.2666 135.21 91.303C136.386 93.3393 136.386 95.8488 135.21 97.8851C134.035 99.9214 131.862 101.176 129.51 101.176H100.988V129.698C100.988 132.05 99.7333 134.223 97.697 135.398C95.6606 136.574 93.1512 136.574 91.1149 135.398C89.0786 134.223 87.8238 132.05 87.8238 129.698V101.176H59.3019C56.9497 101.176 54.7769 99.9214 53.6015 97.8851C52.4261 95.8487 52.4261 93.3393 53.6015 91.303C54.7769 89.2667 56.9498 88.0119 59.3019 88.0119Z" fill="black"/>
</g>
<defs>
<clipPath id="clip0_18_4">
<rect width="189" height="189" fill="white"/>
</clipPath>
</defs>
</svg>
