<svg width="181" height="180" viewBox="0 0 181 180" fill="none" xmlns="http://www.w3.org/2000/svg">
<g clip-path="url(#clip0_18_6)">
<path d="M90.9678 0C41.35 0 0.935669 40.4286 0.935669 90.0643C0.935669 139.7 41.35 180 90.9678 180C140.586 180 180.936 139.696 180.936 90.0643C180.936 40.4286 140.586 0 90.9678 0V0ZM90.9678 12.0007C134.104 12.0007 168.939 46.9143 168.939 90.0614C168.939 133.211 134.101 168.001 90.9678 168.001C47.8321 168.001 12.9964 133.213 12.9964 90.0614C12.9964 46.9114 47.8346 12.0007 90.9678 12.0007V12.0007ZM90.905 49.8757C89.3035 49.8925 87.7745 50.5481 86.6597 51.6991C85.545 52.8501 84.9354 54.3986 84.9688 56.0002V83.9995H56.9792V84.0009C56.7713 83.9897 56.562 83.9897 56.3542 84.0009C54.2113 84.1125 52.2903 85.3583 51.3167 87.2709C50.3415 89.1836 50.4601 91.4702 51.6292 93.2713C52.7969 95.071 54.8365 96.1117 56.9792 96.0001H84.9688V124.001C84.9465 125.607 85.5687 127.155 86.6959 128.298C87.8231 129.442 89.3619 130.086 90.9677 130.086C92.5721 130.086 94.1109 129.442 95.2381 128.298C96.3653 127.155 96.9875 125.606 96.9652 124.001V96.0015H124.955V96.0001C126.561 96.0224 128.108 95.4002 129.25 94.273C130.394 93.1458 131.037 91.607 131.037 89.9998C131.037 88.394 130.394 86.8552 129.25 85.728C128.108 84.6008 126.56 83.9786 124.955 84.0009H96.9652V56.0002C96.9987 54.3763 96.3737 52.8082 95.2311 51.6545C94.0885 50.5007 92.5274 49.859 90.905 49.8757H90.905Z" fill="black"/>
</g>
<defs>
<clipPath id="clip0_18_6">
<rect width="181" height="180" fill="white"/>
</clipPath>
</defs>
</svg>
