<svg width="164" height="155" viewBox="0 0 164 155" fill="none" xmlns="http://www.w3.org/2000/svg">
<g clip-path="url(#clip0_1_729)">
<path d="M20.348 154.713H112.531C117.882 154.704 123.01 152.576 126.794 148.793C130.577 145.008 132.706 139.88 132.714 134.529V98.8917C147.258 92.3933 157.949 79.4961 161.641 64.0018C165.332 48.5062 161.602 32.1743 151.549 19.8162C141.497 7.45805 126.266 0.483856 110.342 0.943822C94.42 1.40375 79.6171 9.24696 70.2946 22.1632H20.349C14.9978 22.1713 9.86966 24.3002 6.08528 28.0832C2.30226 31.8676 0.173202 36.9957 0.165283 42.3469V134.529C0.173353 139.881 2.30226 145.009 6.08528 148.793C9.86966 152.576 14.9978 154.705 20.349 154.713L20.348 154.713ZM120.666 134.529C120.666 136.686 119.809 138.754 118.284 140.281C116.758 141.806 114.69 142.663 112.532 142.663H20.3497C18.1926 142.663 16.1243 141.806 14.5977 140.281C13.0727 138.754 12.216 136.686 12.216 134.529V58.3108H60.8085C62.3564 71.2322 68.7646 83.0818 78.7327 91.4483H78.4919C76.8942 91.4483 75.3611 92.0831 74.2314 93.2127C73.1017 94.3424 72.4669 95.8756 72.4669 97.4733V100.486C72.4669 102.639 73.6154 104.628 75.4794 105.704C77.3434 106.78 79.6405 106.78 81.5044 105.704C83.3684 104.628 84.5169 102.639 84.5169 100.486V97.4733C84.5062 96.7726 84.3744 96.08 84.1256 95.4251C87.9909 97.9158 92.176 99.8712 96.567 101.239C96.8105 102.915 97.7465 104.412 99.1492 105.361C100.551 106.312 102.287 106.628 103.934 106.234C105.58 105.839 106.984 104.769 107.803 103.287C109.038 103.287 110.274 103.468 111.539 103.468V103.469C114.571 103.455 117.595 103.173 120.577 102.624L120.666 134.529ZM111.628 13.1267C122.015 13.1267 131.976 17.2526 139.321 24.5969C146.665 31.9412 150.791 41.9028 150.791 52.2892C150.791 62.6756 146.665 72.6372 139.321 79.9815C131.976 87.3258 122.015 91.4517 111.628 91.4517C101.242 91.4517 91.2805 87.3258 83.9362 79.9815C76.5919 72.6372 72.466 62.6756 72.466 52.2892C72.466 41.9028 76.5919 31.9412 83.9362 24.5969C91.2805 17.2526 101.242 13.1267 111.628 13.1267V13.1267ZM20.3514 34.2142H63.7624C62.2683 38.0929 61.257 42.1397 60.7499 46.2642H12.2194V42.348C12.2194 40.1908 13.0761 38.1226 14.6012 36.596C16.1276 35.0709 18.1959 34.2142 20.3532 34.2142H20.3514Z" fill="black"/>
<path d="M30.2875 67.35C28.6898 67.35 27.1566 67.9848 26.0269 69.1145C24.8972 70.2441 24.2625 71.7773 24.2625 73.375V76.3875C24.2625 78.5406 25.411 80.5296 27.275 81.6055C29.1389 82.6814 31.436 82.6814 33.3 81.6055C35.1639 80.5296 36.3125 78.5406 36.3125 76.3875V73.375C36.3125 71.7773 35.6777 70.2441 34.548 69.1145C33.4183 67.9848 31.8851 67.35 30.2875 67.35Z" fill="black"/>
<path d="M54.3875 67.35C52.7899 67.35 51.2567 67.9848 50.127 69.1145C48.9973 70.2441 48.3625 71.7773 48.3625 73.375V76.3875C48.3625 78.5406 49.5111 80.5296 51.375 81.6055C53.239 82.6814 55.5361 82.6814 57.4 81.6055C59.264 80.5296 60.4126 78.5406 60.4126 76.3875V73.375C60.4126 71.7773 59.7778 70.2441 58.6481 69.1145C57.5184 67.9848 55.9852 67.35 54.3875 67.35Z" fill="black"/>
<path d="M30.2875 91.45C28.6898 91.45 27.1566 92.0848 26.0269 93.2145C24.8972 94.3441 24.2625 95.8773 24.2625 97.475V100.487C24.2625 102.641 25.411 104.63 27.275 105.705C29.1389 106.781 31.436 106.781 33.3 105.705C35.1639 104.63 36.3125 102.641 36.3125 100.487V97.475C36.3125 95.8773 35.6777 94.3441 34.548 93.2145C33.4183 92.0848 31.8851 91.45 30.2875 91.45Z" fill="black"/>
<path d="M54.3875 91.45C52.7899 91.45 51.2567 92.0848 50.127 93.2145C48.9973 94.3441 48.3625 95.8773 48.3625 97.475V100.487C48.3625 102.641 49.5111 104.63 51.375 105.705C53.239 106.781 55.5361 106.781 57.4 105.705C59.264 104.63 60.4126 102.641 60.4126 100.487V97.475C60.4126 95.8773 59.7778 94.3441 58.6481 93.2145C57.5184 92.0848 55.9852 91.45 54.3875 91.45Z" fill="black"/>
<path d="M30.2875 115.55C28.6898 115.55 27.1566 116.185 26.0269 117.314C24.8972 118.444 24.2625 119.977 24.2625 121.575V124.588C24.2625 126.741 25.411 128.73 27.275 129.805C29.1389 130.881 31.436 130.881 33.3 129.805C35.1639 128.73 36.3125 126.741 36.3125 124.588V121.575C36.3125 119.977 35.6777 118.444 34.548 117.314C33.4183 116.185 31.8851 115.55 30.2875 115.55Z" fill="black"/>
<path d="M54.3875 115.55C52.7899 115.55 51.2567 116.185 50.127 117.314C48.9973 118.444 48.3625 119.977 48.3625 121.575V124.588C48.3625 126.741 49.5111 128.73 51.375 129.805C53.239 130.881 55.5361 130.881 57.4 129.805C59.264 128.73 60.4126 126.741 60.4126 124.588V121.575C60.4126 119.977 59.7778 118.444 58.6481 117.314C57.5184 116.185 55.9852 115.55 54.3875 115.55Z" fill="black"/>
<path d="M78.4874 115.55C76.8897 115.55 75.3565 116.185 74.2269 117.314C73.0972 118.444 72.4624 119.977 72.4624 121.575V124.588C72.4624 126.741 73.6109 128.73 75.4749 129.805C77.3389 130.881 79.6359 130.881 81.4999 129.805C83.3639 128.73 84.5124 126.741 84.5124 124.588V121.575C84.5124 119.977 83.8776 118.444 82.7479 117.314C81.6183 116.185 80.0851 115.55 78.4874 115.55Z" fill="black"/>
<path d="M102.588 115.55C100.99 115.55 99.4566 116.185 98.327 117.314C97.1973 118.444 96.5625 119.977 96.5625 121.575V124.588C96.5625 126.741 97.711 128.73 99.575 129.805C101.439 130.881 103.736 130.881 105.6 129.805C107.464 128.73 108.613 126.741 108.613 124.588V121.575C108.613 119.977 107.978 118.444 106.848 117.314C105.718 116.185 104.185 115.55 102.588 115.55Z" fill="black"/>
<path d="M111.625 58.3125H126.688C128.841 58.3125 130.83 57.164 131.906 55.3C132.981 53.436 132.981 51.139 131.906 49.275C130.83 47.411 128.841 46.2625 126.688 46.2625H117.65V28.1875C117.65 26.0344 116.502 24.0454 114.638 22.9695C112.774 21.8936 110.477 21.8936 108.613 22.9695C106.749 24.0454 105.6 26.0344 105.6 28.1875V52.2875C105.6 53.8852 106.235 55.4184 107.365 56.548C108.494 57.6777 110.027 58.3125 111.625 58.3125Z" fill="black"/>
</g>
<defs>
<clipPath id="clip0_1_729">
<rect width="164" height="155" fill="white"/>
</clipPath>
</defs>
</svg>
