<svg width="618" height="155" viewBox="0 0 618 155" fill="none" xmlns="http://www.w3.org/2000/svg">
<g filter="url(#filter0_d_6_1300)">
<rect x="4" width="610" height="147" rx="30" fill="white"/>
<text fill="black" xml:space="preserve" style="white-space: pre" font-family="Montserrat" font-size="18" font-weight="500" letter-spacing="0em"><tspan x="101" y="60.453">Buy concert tickets!</tspan></text>
<path fill-rule="evenodd" clip-rule="evenodd" d="M573.492 117.844L579.724 124.076C582.567 126.919 586.932 122.554 584.06 119.711L577.857 113.508L584.06 107.276C586.932 104.433 582.567 100.068 579.724 102.94L573.492 109.143L567.289 102.94C564.446 100.068 560.081 104.433 562.924 107.276L569.156 113.508L562.924 119.711C560.081 122.554 564.446 126.919 567.289 124.076L573.492 117.844Z" fill="black"/>
<path d="M540.333 103.333H521.667C520.936 103.333 520.333 103.936 520.333 104.667V123.333C520.333 124.064 520.936 124.667 521.667 124.667H540.333C541.064 124.667 541.667 124.064 541.667 123.333V104.667C541.667 103.936 541.064 103.333 540.333 103.333ZM540.333 102C541.8 102 543 103.2 543 104.667V123.333C543 124.8 541.8 126 540.333 126H521.667C520.2 126 519 124.8 519 123.333V104.667C519 103.2 520.2 102 521.667 102H540.333Z" fill="black"/>
<path fill-rule="evenodd" clip-rule="evenodd" d="M74.4566 58.3332C75.9827 60.24 77 62.4931 77 64.9197C77 65.4399 77 65.9597 76.8303 66.4799C76.1521 70.9865 72.4221 74.28 68.5224 76.3599C63.7752 78.9601 58.0099 80 52.5847 80C47.1595 80 41.2252 78.96 36.4776 76.3599C32.5778 74.2799 28.8479 70.9864 28.1697 66.4799C28.1697 65.9597 28 65.4399 28 64.9197C28 62.4931 29.0173 60.2396 30.5434 58.3332C30.0346 53.6531 30.8825 49.3196 32.7476 45.6801C30.374 43.9468 28.8479 40.8268 28.8479 37.5333C28.8479 32.1599 32.5779 28 37.3255 28C41.0555 28 44.1073 30.6002 45.2943 34.4135C47.4985 33.5466 50.0415 33.2 52.5848 33.2C55.1281 33.2 57.5019 33.5467 59.7057 34.4135C60.8927 30.6002 64.1139 28 67.8442 28C72.4221 28 76.3219 32.1599 76.3219 37.5333C76.3219 40.8268 74.6265 43.9468 72.2528 45.6801C74.118 49.3202 74.9655 53.6532 74.4571 58.3332H74.4566ZM50.3806 76.1863C50.8894 76.1863 51.2285 76.0128 51.7369 76.0128V72.7193C49.5327 72.5458 47.8372 71.6793 47.8372 70.6393C47.8372 69.2527 49.8718 67.5193 52.5844 67.5193C55.1278 67.5193 57.1623 69.2526 57.1623 70.6393C57.1623 71.6793 55.4669 72.5462 53.2626 72.7193V76.0128C53.7714 76.0128 54.2798 76.1863 54.6189 76.1863C55.4668 76.3599 55.8059 77.2263 55.6362 77.573C66.4875 76.7061 74.7951 71.5062 74.7951 64.9198C74.7951 62.8398 73.9472 60.7599 72.2517 59.0266C74.1169 46.7198 64.7918 35.4529 52.5846 35.4529C40.2079 35.4529 30.883 46.7198 32.9176 59.0266C31.2221 60.7598 30.2049 62.8398 30.2049 64.9198C30.2049 71.5063 38.5127 76.7072 49.3638 77.573C49.3638 77.2263 49.5336 76.533 50.3811 76.1863H50.3806ZM54.2804 77.7465C53.0934 77.2263 51.9067 77.2263 50.7198 77.7465H52.5849H54.2804ZM44.1075 56.4261C43.5987 56.5996 43.2596 57.1194 43.2596 57.6395C43.2596 58.3329 43.9378 59.0262 44.616 59.0262C45.1248 59.0262 45.6332 58.6795 45.8029 58.1593C46.3118 59.8926 45.1247 61.6259 43.2595 61.6259C41.9032 61.6259 40.7161 60.4125 40.7161 59.0257C40.7161 57.1189 42.4115 55.9057 44.107 56.4255L44.1075 56.4261ZM60.8932 56.4261C61.402 56.5996 61.7411 57.1194 61.7411 57.6395C61.7411 58.3329 61.0629 59.0262 60.3848 59.0262C59.8759 59.0262 59.3675 58.6795 59.1978 58.1593C58.689 59.8926 59.876 61.6259 61.7412 61.6259C63.0975 61.6259 64.2846 60.4125 64.2846 59.0257C64.2846 57.1189 62.5892 55.9057 60.8937 56.4255L60.8932 56.4261ZM61.5714 50.8795C64.9623 50.8795 70.5574 55.213 70.8965 60.7595C71.2356 66.306 67.1665 69.4264 63.6059 69.4264C60.215 69.4264 54.7893 59.1997 54.7893 55.7333C54.959 52.2667 58.1802 50.8801 61.5711 50.8801L61.5714 50.8795ZM61.5714 54.3462C59.028 54.3462 57.1632 56.4262 57.1632 59.0263C57.1632 61.6265 59.0284 63.7064 61.5714 63.7064C63.945 63.7064 65.9795 61.6264 65.9795 59.0263C65.9795 56.4261 63.945 54.3462 61.5714 54.3462ZM43.4297 50.8795C40.0388 50.8795 34.613 55.213 34.1046 60.7595C33.7655 66.306 38.0043 69.4264 41.3951 69.4264C44.9557 69.4264 50.3812 59.1997 50.2118 55.7333C50.0421 52.2667 46.9903 50.8801 43.43 50.8801L43.4297 50.8795ZM43.5994 54.3462C45.973 54.3462 48.0076 56.4262 48.0076 59.0263C48.0076 61.6265 45.973 63.7064 43.5994 63.7064C41.056 63.7064 39.0216 61.6264 39.0216 59.0263C39.0216 56.4261 41.0561 54.3462 43.5994 54.3462Z" fill="black"/>
<path d="M476.472 102.368C476.827 102.523 477.111 102.807 477.267 103.162L477.491 103.676C477.529 103.761 477.65 103.761 477.687 103.676L477.912 103.162C478.068 102.807 478.352 102.523 478.707 102.368L479.221 102.143C479.306 102.105 479.306 101.984 479.221 101.947L478.708 101.722C478.353 101.567 478.069 101.283 477.913 100.927L477.687 100.413C477.65 100.328 477.529 100.328 477.491 100.413L477.267 100.927C477.111 101.283 476.827 101.567 476.472 101.722L475.958 101.947C475.873 101.984 475.873 102.105 475.958 102.143L476.472 102.368Z" fill="black"/>
<path d="M473.813 116.782C473.457 116.627 473.173 116.343 473.018 115.988L472.793 115.474C472.756 115.389 472.635 115.389 472.597 115.474L472.372 115.988C472.217 116.343 471.933 116.627 471.578 116.782L471.064 117.007C470.979 117.044 470.979 117.166 471.064 117.203L471.578 117.428C471.933 117.583 472.217 117.867 472.372 118.223L472.597 118.737C472.634 118.821 472.756 118.821 472.793 118.737L473.018 118.223C473.173 117.867 473.457 117.583 473.813 117.428L474.327 117.203C474.411 117.166 474.411 117.045 474.327 117.007L473.813 116.782Z" fill="black"/>
<path d="M492.306 102.368C492.662 102.523 492.945 102.807 493.101 103.162L493.326 103.676C493.363 103.761 493.484 103.761 493.522 103.676L493.746 103.162C493.902 102.807 494.186 102.523 494.541 102.368L495.055 102.143C495.14 102.105 495.14 101.984 495.055 101.947L494.542 101.722C494.187 101.567 493.903 101.283 493.748 100.927L493.523 100.413C493.485 100.328 493.364 100.328 493.327 100.413L493.102 100.927C492.947 101.283 492.663 101.567 492.307 101.722L491.793 101.947C491.708 101.984 491.708 102.105 491.793 102.143L492.306 102.368Z" fill="black"/>
<path d="M499.949 117.007L499.435 116.782C499.079 116.626 498.795 116.342 498.64 115.987L498.415 115.473C498.378 115.388 498.257 115.388 498.219 115.473L497.994 115.987C497.839 116.343 497.555 116.626 497.2 116.782L496.686 117.007C496.601 117.044 496.601 117.165 496.686 117.203L497.2 117.427C497.555 117.583 497.839 117.867 497.994 118.222L498.219 118.736C498.256 118.821 498.378 118.821 498.415 118.736L498.64 118.222C498.795 117.867 499.079 117.583 499.435 117.427L499.949 117.203C500.035 117.165 500.035 117.044 499.949 117.007Z" fill="black"/>
<path d="M486.624 126.09C486.269 125.935 485.985 125.651 485.829 125.296L485.605 124.782C485.567 124.697 485.446 124.697 485.409 124.782L485.184 125.296C485.028 125.651 484.744 125.935 484.389 126.09L483.875 126.315C483.79 126.352 483.79 126.474 483.875 126.511L484.389 126.736C484.745 126.891 485.028 127.175 485.184 127.531L485.409 128.045C485.446 128.129 485.567 128.129 485.605 128.045L485.829 127.531C485.985 127.175 486.269 126.891 486.624 126.736L487.138 126.511C487.223 126.474 487.223 126.353 487.138 126.315L486.624 126.09Z" fill="black"/>
<path d="M493.753 115.978C493.712 115.742 493.791 115.503 493.961 115.336L498.111 111.291C498.823 110.598 499.074 109.58 498.766 108.635C498.459 107.69 497.657 107.015 496.674 106.872L490.94 106.039C490.704 106.005 490.499 105.857 490.394 105.641L487.829 100.445C487.39 99.5532 486.5 99 485.506 99C484.514 99 483.622 99.5533 483.183 100.444L480.619 105.641C480.513 105.855 480.309 106.004 480.073 106.038L474.338 106.871C473.355 107.014 472.553 107.69 472.246 108.635C471.94 109.58 472.19 110.598 472.902 111.29L477.051 115.335C477.222 115.502 477.301 115.743 477.26 115.978L476.28 121.689C476.112 122.668 476.507 123.639 477.311 124.223C477.765 124.553 478.296 124.72 478.831 124.72C479.243 124.72 479.657 124.621 480.04 124.419L485.17 121.723C485.381 121.612 485.633 121.612 485.845 121.723L490.974 124.419C491.853 124.881 492.899 124.807 493.704 124.223C494.507 123.64 494.902 122.668 494.735 121.688L493.753 115.978ZM491.915 116.293L492.895 122.004C492.963 122.406 492.715 122.634 492.605 122.714C492.496 122.795 492.201 122.959 491.841 122.769L486.712 120.073C485.956 119.677 485.055 119.677 484.299 120.073L479.17 122.77C478.81 122.96 478.515 122.795 478.406 122.715C478.296 122.636 478.048 122.407 478.118 122.006L479.097 116.294C479.241 115.454 478.962 114.596 478.352 114.001L474.202 109.957C473.911 109.673 473.976 109.341 474.019 109.213C474.061 109.084 474.202 108.777 474.605 108.718L480.339 107.885C481.184 107.763 481.913 107.233 482.291 106.468L484.855 101.271C485.036 100.905 485.37 100.865 485.506 100.865C485.642 100.865 485.978 100.905 486.157 101.27L488.721 106.466C489.099 107.232 489.828 107.761 490.673 107.885L496.407 108.718C496.81 108.777 496.951 109.082 496.992 109.212C497.034 109.341 497.1 109.672 496.809 109.956L492.659 114.001C492.049 114.596 491.771 115.453 491.915 116.293L491.915 116.293Z" fill="black"/>
<text fill="black" xml:space="preserve" style="white-space: pre" font-family="Montserrat" font-size="13" font-weight="300" letter-spacing="0em"><tspan x="108" y="121.66">October 28, 2022</tspan></text>
</g>
<defs>
<filter id="filter0_d_6_1300" x="0" y="0" width="618" height="155" filterUnits="userSpaceOnUse" color-interpolation-filters="sRGB">
<feFlood flood-opacity="0" result="BackgroundImageFix"/>
<feColorMatrix in="SourceAlpha" type="matrix" values="0 0 0 0 0 0 0 0 0 0 0 0 0 0 0 0 0 0 127 0" result="hardAlpha"/>
<feOffset dy="4"/>
<feGaussianBlur stdDeviation="2"/>
<feComposite in2="hardAlpha" operator="out"/>
<feColorMatrix type="matrix" values="0 0 0 0 0 0 0 0 0 0 0 0 0 0 0 0 0 0 0.25 0"/>
<feBlend mode="normal" in2="BackgroundImageFix" result="effect1_dropShadow_6_1300"/>
<feBlend mode="normal" in="SourceGraphic" in2="effect1_dropShadow_6_1300" result="shape"/>
</filter>
</defs>
</svg>
