<svg width="610" height="147" viewBox="0 0 610 147" fill="none" xmlns="http://www.w3.org/2000/svg">
<rect width="610" height="147" rx="30" fill="white"/>
<text fill="black" xml:space="preserve" style="white-space: pre" font-family="Montserrat" font-size="18" font-weight="500" letter-spacing="0em"><tspan x="97" y="60.453">Groceries shopping at Trader Joe&#x2019;s</tspan></text>
<path fill-rule="evenodd" clip-rule="evenodd" d="M569.492 117.844L575.724 124.076C578.567 126.919 582.932 122.554 580.06 119.711L573.857 113.508L580.06 107.276C582.932 104.433 578.567 100.068 575.724 102.94L569.492 109.143L563.289 102.94C560.446 100.068 556.081 104.433 558.924 107.276L565.156 113.508L558.924 119.711C556.081 122.554 560.446 126.919 563.289 124.076L569.492 117.844Z" fill="black"/>
<path d="M536.333 103.333H517.667C516.936 103.333 516.333 103.936 516.333 104.667V123.333C516.333 124.064 516.936 124.667 517.667 124.667H536.333C537.064 124.667 537.667 124.064 537.667 123.333V104.667C537.667 103.936 537.064 103.333 536.333 103.333ZM536.333 102C537.8 102 539 103.2 539 104.667V123.333C539 124.8 537.8 126 536.333 126H517.667C516.2 126 515 124.8 515 123.333V104.667C515 103.2 516.2 102 517.667 102H536.333Z" fill="black"/>
<path fill-rule="evenodd" clip-rule="evenodd" d="M70.4566 58.3332C71.9827 60.24 73 62.4931 73 64.9197C73 65.4399 73 65.9597 72.8303 66.4799C72.1521 70.9865 68.4221 74.28 64.5224 76.3599C59.7752 78.9601 54.0099 80 48.5847 80C43.1595 80 37.2252 78.96 32.4776 76.3599C28.5778 74.2799 24.8479 70.9864 24.1697 66.4799C24.1697 65.9597 24 65.4399 24 64.9197C24 62.4931 25.0173 60.2396 26.5434 58.3332C26.0346 53.6531 26.8825 49.3196 28.7476 45.6801C26.374 43.9468 24.8479 40.8268 24.8479 37.5333C24.8479 32.1599 28.5779 28 33.3255 28C37.0555 28 40.1073 30.6002 41.2943 34.4135C43.4985 33.5466 46.0415 33.2 48.5848 33.2C51.1281 33.2 53.5019 33.5467 55.7057 34.4135C56.8927 30.6002 60.1139 28 63.8442 28C68.4221 28 72.3219 32.1599 72.3219 37.5333C72.3219 40.8268 70.6265 43.9468 68.2528 45.6801C70.118 49.3202 70.9655 53.6532 70.4571 58.3332H70.4566ZM46.3806 76.1863C46.8894 76.1863 47.2285 76.0128 47.7369 76.0128V72.7193C45.5327 72.5458 43.8372 71.6793 43.8372 70.6393C43.8372 69.2527 45.8718 67.5193 48.5844 67.5193C51.1278 67.5193 53.1623 69.2526 53.1623 70.6393C53.1623 71.6793 51.4669 72.5462 49.2626 72.7193V76.0128C49.7714 76.0128 50.2798 76.1863 50.6189 76.1863C51.4668 76.3599 51.8059 77.2263 51.6362 77.573C62.4875 76.7061 70.7951 71.5062 70.7951 64.9198C70.7951 62.8398 69.9472 60.7599 68.2517 59.0266C70.1169 46.7198 60.7918 35.4529 48.5846 35.4529C36.2079 35.4529 26.883 46.7198 28.9176 59.0266C27.2221 60.7598 26.2049 62.8398 26.2049 64.9198C26.2049 71.5063 34.5127 76.7072 45.3638 77.573C45.3638 77.2263 45.5336 76.533 46.3811 76.1863H46.3806ZM50.2804 77.7465C49.0934 77.2263 47.9067 77.2263 46.7198 77.7465H48.5849H50.2804V77.7465ZM40.1075 56.4261C39.5987 56.5996 39.2596 57.1194 39.2596 57.6395C39.2596 58.3329 39.9378 59.0262 40.616 59.0262C41.1248 59.0262 41.6332 58.6795 41.8029 58.1593C42.3118 59.8926 41.1247 61.6259 39.2595 61.6259C37.9032 61.6259 36.7161 60.4125 36.7161 59.0257C36.7161 57.1189 38.4115 55.9057 40.107 56.4255L40.1075 56.4261ZM56.8932 56.4261C57.402 56.5996 57.7411 57.1194 57.7411 57.6395C57.7411 58.3329 57.0629 59.0262 56.3848 59.0262C55.8759 59.0262 55.3675 58.6795 55.1978 58.1593C54.689 59.8926 55.876 61.6259 57.7412 61.6259C59.0975 61.6259 60.2846 60.4125 60.2846 59.0257C60.2846 57.1189 58.5892 55.9057 56.8937 56.4255L56.8932 56.4261ZM57.5714 50.8795C60.9623 50.8795 66.5574 55.213 66.8965 60.7595C67.2356 66.306 63.1665 69.4264 59.6059 69.4264C56.215 69.4264 50.7893 59.1997 50.7893 55.7333C50.959 52.2667 54.1802 50.8801 57.5711 50.8801L57.5714 50.8795ZM57.5714 54.3462C55.028 54.3462 53.1632 56.4262 53.1632 59.0263C53.1632 61.6265 55.0284 63.7064 57.5714 63.7064C59.945 63.7064 61.9795 61.6264 61.9795 59.0263C61.9795 56.4261 59.945 54.3462 57.5714 54.3462ZM39.4297 50.8795C36.0388 50.8795 30.613 55.213 30.1046 60.7595C29.7655 66.306 34.0043 69.4264 37.3951 69.4264C40.9557 69.4264 46.3812 59.1997 46.2118 55.7333C46.0421 52.2667 42.9903 50.8801 39.43 50.8801L39.4297 50.8795ZM39.5994 54.3462C41.973 54.3462 44.0076 56.4262 44.0076 59.0263C44.0076 61.6265 41.973 63.7064 39.5994 63.7064C37.056 63.7064 35.0216 61.6264 35.0216 59.0263C35.0216 56.4261 37.0561 54.3462 39.5994 54.3462Z" fill="black"/>
<path d="M472.472 102.368C472.827 102.523 473.111 102.807 473.267 103.162L473.491 103.676C473.529 103.761 473.65 103.761 473.687 103.676L473.912 103.162C474.068 102.807 474.352 102.523 474.707 102.368L475.221 102.143C475.306 102.106 475.306 101.984 475.221 101.947L474.708 101.722C474.353 101.567 474.069 101.283 473.913 100.927L473.687 100.413C473.65 100.328 473.529 100.328 473.491 100.413L473.267 100.927C473.111 101.283 472.827 101.567 472.472 101.722L471.958 101.947C471.873 101.984 471.873 102.105 471.958 102.143L472.472 102.368Z" fill="black"/>
<path d="M469.813 116.782C469.457 116.627 469.173 116.343 469.018 115.988L468.793 115.474C468.756 115.389 468.635 115.389 468.597 115.474L468.372 115.988C468.217 116.343 467.933 116.627 467.578 116.782L467.064 117.007C466.979 117.044 466.979 117.166 467.064 117.203L467.578 117.428C467.933 117.583 468.217 117.867 468.372 118.223L468.597 118.737C468.634 118.821 468.756 118.821 468.793 118.737L469.018 118.223C469.173 117.867 469.457 117.583 469.813 117.428L470.327 117.203C470.411 117.166 470.411 117.045 470.327 117.007L469.813 116.782Z" fill="black"/>
<path d="M488.306 102.368C488.662 102.523 488.945 102.807 489.101 103.162L489.326 103.676C489.363 103.761 489.484 103.761 489.522 103.676L489.746 103.162C489.902 102.807 490.186 102.523 490.541 102.368L491.055 102.143C491.14 102.106 491.14 101.984 491.055 101.947L490.542 101.722C490.187 101.567 489.903 101.283 489.748 100.927L489.523 100.413C489.485 100.328 489.364 100.328 489.327 100.413L489.102 100.927C488.947 101.283 488.663 101.567 488.307 101.722L487.793 101.947C487.708 101.984 487.708 102.105 487.793 102.143L488.306 102.368Z" fill="black"/>
<path d="M495.949 117.007L495.435 116.782C495.079 116.626 494.795 116.342 494.64 115.987L494.415 115.473C494.378 115.388 494.257 115.388 494.219 115.473L493.994 115.987C493.839 116.343 493.555 116.626 493.2 116.782L492.686 117.007C492.601 117.044 492.601 117.165 492.686 117.203L493.2 117.427C493.555 117.583 493.839 117.867 493.994 118.222L494.219 118.736C494.256 118.821 494.378 118.821 494.415 118.736L494.64 118.222C494.795 117.867 495.079 117.583 495.435 117.427L495.949 117.203C496.035 117.165 496.035 117.044 495.949 117.007Z" fill="black"/>
<path d="M482.624 126.09C482.269 125.935 481.985 125.651 481.829 125.296L481.605 124.782C481.567 124.697 481.446 124.697 481.409 124.782L481.184 125.296C481.028 125.651 480.744 125.935 480.389 126.09L479.875 126.315C479.79 126.352 479.79 126.474 479.875 126.511L480.389 126.736C480.745 126.891 481.028 127.175 481.184 127.531L481.409 128.045C481.446 128.129 481.567 128.129 481.605 128.045L481.829 127.531C481.985 127.175 482.269 126.891 482.624 126.736L483.138 126.511C483.223 126.474 483.223 126.353 483.138 126.315L482.624 126.09Z" fill="black"/>
<path d="M489.753 115.978C489.712 115.742 489.791 115.503 489.961 115.336L494.111 111.291C494.823 110.598 495.074 109.58 494.766 108.635C494.459 107.69 493.657 107.015 492.674 106.872L486.94 106.039C486.704 106.005 486.499 105.857 486.394 105.641L483.829 100.445C483.39 99.5532 482.5 99 481.506 99C480.514 99 479.622 99.5533 479.183 100.444L476.619 105.641C476.513 105.855 476.309 106.004 476.073 106.038L470.338 106.871C469.355 107.014 468.553 107.69 468.246 108.635C467.94 109.58 468.19 110.598 468.902 111.29L473.051 115.335C473.222 115.502 473.301 115.743 473.26 115.978L472.28 121.689C472.112 122.668 472.507 123.639 473.311 124.223C473.765 124.553 474.296 124.72 474.831 124.72C475.243 124.72 475.657 124.621 476.04 124.419L481.17 121.723C481.381 121.612 481.633 121.612 481.845 121.723L486.974 124.419C487.853 124.881 488.899 124.807 489.704 124.223C490.507 123.64 490.902 122.668 490.735 121.688L489.753 115.978ZM487.915 116.293L488.895 122.004C488.963 122.406 488.715 122.634 488.605 122.714C488.496 122.795 488.201 122.959 487.841 122.769L482.712 120.073C481.956 119.677 481.055 119.677 480.299 120.073L475.17 122.77C474.81 122.96 474.515 122.795 474.406 122.715C474.296 122.636 474.048 122.407 474.118 122.006L475.097 116.294C475.241 115.454 474.962 114.596 474.352 114.001L470.202 109.957C469.911 109.673 469.976 109.341 470.019 109.213C470.061 109.084 470.202 108.777 470.605 108.718L476.339 107.885C477.184 107.763 477.913 107.233 478.291 106.468L480.855 101.271C481.036 100.905 481.37 100.865 481.506 100.865C481.642 100.865 481.978 100.905 482.157 101.27L484.721 106.466C485.099 107.232 485.828 107.761 486.673 107.885L492.407 108.718C492.81 108.777 492.951 109.082 492.992 109.212C493.034 109.341 493.1 109.672 492.809 109.956L488.659 114.001C488.049 114.596 487.771 115.453 487.915 116.293L487.915 116.293Z" fill="black"/>
<text fill="black" xml:space="preserve" style="white-space: pre" font-family="Montserrat" font-size="13" font-weight="300" letter-spacing="0em"><tspan x="104" y="121.66">October 28, 2022</tspan></text>
</svg>
