<svg width="23" height="23" viewBox="0 0 23 23" fill="none" xmlns="http://www.w3.org/2000/svg">
<path d="M22.1377 4.0136L18.9825 0.857304C17.8325 -0.293078 15.9496 -0.285555 14.7856 0.878868L3.0356 12.633C2.94938 12.7193 2.89173 12.8201 2.86315 12.9349L2.85613 12.9279L0.0317772 22.0723C-0.0474286 22.324 0.0247599 22.6043 0.211239 22.7914C0.347593 22.9278 0.534573 23 0.721567 23C0.793252 23 0.865441 22.993 0.930108 22.9714L10.0713 20.1461L10.0642 20.139C10.179 20.1029 10.2798 20.0528 10.366 19.9665L22.1161 8.21238C22.6765 7.65173 22.9928 6.90408 22.9999 6.11314C23.0074 5.32231 22.6981 4.57466 22.1376 4.01352L22.1377 4.0136ZM4.46626 20.3767L2.62648 18.5362L4.04969 13.9281C5.14202 14.1869 5.95415 15.1502 5.98264 16.3152C5.98966 16.7033 6.29896 17.0127 6.68697 17.0197C7.85099 17.0483 8.81396 17.8607 9.07319 18.9534L4.46626 20.3767Z" fill="black"/>
</svg>
