<svg width="102" height="103" viewBox="0 0 102 103" fill="none" xmlns="http://www.w3.org/2000/svg">
<g clip-path="url(#clip0_6_952)">
<path d="M51.4645 95.76C76.5169 95.76 96.8245 75.4524 96.8245 50.4C96.8245 25.3476 76.5169 5.04 51.4645 5.04C26.4121 5.04 6.10445 25.3476 6.10445 50.4C6.10445 75.4524 26.4121 95.76 51.4645 95.76V95.76ZM51.4645 100.8C23.6293 100.8 1.06445 78.2352 1.06445 50.4C1.06445 22.5648 23.6293 0 51.4645 0C79.2997 0 101.864 22.5648 101.864 50.4C101.864 78.2352 79.2997 100.8 51.4645 100.8V100.8Z" fill="black"/>
<path d="M0.486125 102.257C0.46925 102.267 0.450969 102.273 0.432686 102.277C0.415811 102.28 0.396827 102.282 0.376436 102.282C0.315967 102.282 0.268156 102.267 0.232998 102.234C0.199248 102.201 0.182373 102.155 0.182373 102.097C0.182373 102.04 0.199248 101.995 0.232998 101.962C0.268154 101.928 0.315967 101.911 0.376436 101.911C0.396827 101.911 0.415811 101.914 0.432686 101.919C0.450967 101.924 0.469248 101.93 0.486125 101.939V102.012C0.46925 102.001 0.452375 101.993 0.4355 101.987C0.418625 101.981 0.400344 101.978 0.382061 101.978C0.349717 101.978 0.324406 101.99 0.306123 102.012C0.287138 102.033 0.277998 102.061 0.277998 102.097C0.277998 102.135 0.287139 102.164 0.306123 102.187C0.324404 102.208 0.349717 102.218 0.382061 102.218C0.400342 102.218 0.418623 102.215 0.4355 102.209C0.452377 102.203 0.46925 102.195 0.486125 102.184V102.257Z" fill="black"/>
<path d="M0.760357 102.08C0.752623 102.076 0.744889 102.074 0.737857 102.074C0.730123 102.073 0.722389 102.071 0.715357 102.071C0.692857 102.071 0.674577 102.079 0.661919 102.094C0.650669 102.107 0.645044 102.127 0.645044 102.153V102.277H0.560669V102.007H0.645044V102.052C0.656294 102.035 0.668248 102.023 0.681606 102.015C0.696371 102.006 0.71395 102.001 0.735044 102.001H0.743481C0.746997 102.001 0.752622 102.002 0.760356 102.004L0.760357 102.08Z" fill="black"/>
<path d="M1.07045 102.142V102.167H0.870756C0.872162 102.186 0.879193 102.201 0.890444 102.212C0.903101 102.222 0.921383 102.226 0.943883 102.226C0.962164 102.226 0.981148 102.223 1.00013 102.218C1.01841 102.212 1.0381 102.205 1.05919 102.195V102.26C1.0381 102.267 1.01771 102.273 0.997319 102.277C0.976225 102.28 0.955835 102.282 0.935444 102.282C0.886225 102.282 0.84896 102.27 0.822944 102.246C0.796225 102.222 0.783569 102.187 0.783569 102.142C0.783569 102.099 0.796225 102.065 0.822944 102.04C0.84896 102.014 0.885523 102.001 0.932633 102.001C0.973414 102.001 1.00646 102.014 1.03107 102.04C1.05709 102.065 1.07045 102.099 1.07045 102.142L1.07045 102.142ZM0.98326 102.113C0.98326 102.097 0.978338 102.084 0.969197 102.074C0.959353 102.063 0.946697 102.057 0.929822 102.057C0.914353 102.057 0.901697 102.062 0.890447 102.071C0.879197 102.081 0.872166 102.095 0.870759 102.113L0.98326 102.113Z" fill="black"/>
<path d="M1.25818 102.156C1.23919 102.156 1.22513 102.158 1.21599 102.164C1.20615 102.17 1.20193 102.18 1.20193 102.192C1.20193 102.203 1.20544 102.212 1.21318 102.218C1.22021 102.223 1.23076 102.226 1.24412 102.226C1.26099 102.226 1.27365 102.22 1.28349 102.209C1.29474 102.198 1.30037 102.183 1.30037 102.164V102.156L1.25818 102.156ZM1.38755 102.122V102.277H1.30037V102.237C1.28912 102.254 1.27576 102.267 1.26099 102.274C1.24763 102.279 1.23076 102.282 1.21037 102.282C1.18224 102.282 1.15974 102.275 1.14287 102.26C1.12599 102.243 1.11755 102.222 1.11755 102.195C1.11755 102.163 1.1274 102.141 1.14849 102.128C1.17099 102.113 1.20474 102.105 1.24974 102.105H1.30037V102.097C1.30037 102.084 1.29474 102.074 1.28349 102.068C1.27365 102.061 1.25818 102.057 1.23568 102.057C1.2167 102.057 1.19912 102.059 1.18224 102.063C1.16677 102.067 1.15271 102.073 1.14005 102.08V102.015C1.15833 102.009 1.17732 102.006 1.1963 102.004C1.21458 102.002 1.23287 102.001 1.24974 102.001C1.29826 102.001 1.33271 102.011 1.3538 102.029C1.3763 102.048 1.38755 102.079 1.38755 102.122V102.122Z" fill="black"/>
<path d="M1.56187 101.931V102.007H1.65187V102.068H1.56187V102.184C1.56187 102.195 1.56328 102.203 1.5675 102.209C1.57312 102.213 1.58296 102.215 1.59843 102.215H1.64343V102.277H1.57031C1.53656 102.277 1.51195 102.27 1.49718 102.257C1.48382 102.242 1.4775 102.217 1.4775 102.184V102.068H1.4325V102.007H1.4775V101.931L1.56187 101.931Z" fill="black"/>
<path d="M1.97182 102.142V102.167H1.77212C1.77353 102.186 1.78056 102.201 1.79181 102.212C1.80447 102.222 1.82275 102.226 1.84525 102.226C1.86353 102.226 1.88252 102.223 1.9015 102.218C1.91978 102.212 1.93947 102.205 1.96056 102.195V102.26C1.93947 102.267 1.91908 102.273 1.89869 102.277C1.87759 102.28 1.8572 102.282 1.83681 102.282C1.78759 102.282 1.75033 102.27 1.72431 102.246C1.69759 102.222 1.68494 102.187 1.68494 102.142C1.68494 102.099 1.69759 102.065 1.72431 102.04C1.75033 102.014 1.78689 102.001 1.834 102.001C1.87478 102.001 1.90783 102.014 1.93244 102.04C1.95845 102.065 1.97181 102.099 1.97181 102.142L1.97182 102.142ZM1.88463 102.113C1.88463 102.097 1.8797 102.084 1.87056 102.074C1.86072 102.063 1.84806 102.057 1.83119 102.057C1.81572 102.057 1.80306 102.062 1.79181 102.071C1.78056 102.081 1.77353 102.095 1.77213 102.113L1.88463 102.113Z" fill="black"/>
<path d="M2.22081 102.046V101.903H2.308V102.277H2.22081V102.237C2.20745 102.254 2.19339 102.267 2.17862 102.274C2.16526 102.279 2.14909 102.282 2.13081 102.282C2.09847 102.282 2.07175 102.27 2.04925 102.243C2.02815 102.217 2.01831 102.183 2.01831 102.142C2.01831 102.101 2.02815 102.067 2.04925 102.04C2.07175 102.014 2.09847 102.001 2.13081 102.001C2.14909 102.001 2.16526 102.005 2.17862 102.012C2.19339 102.02 2.20745 102.031 2.22081 102.046V102.046ZM2.16456 102.22C2.18144 102.22 2.19409 102.214 2.20394 102.201C2.21519 102.188 2.22081 102.168 2.22081 102.142C2.22081 102.118 2.21519 102.099 2.20394 102.085C2.19409 102.071 2.18144 102.063 2.16456 102.063C2.14558 102.063 2.13151 102.071 2.12237 102.085C2.11253 102.099 2.10831 102.118 2.10831 102.142C2.10831 102.168 2.11253 102.188 2.12237 102.201C2.13151 102.214 2.14558 102.22 2.16456 102.22Z" fill="black"/>
<path d="M2.7052 102.22C2.72208 102.22 2.73473 102.214 2.74458 102.201C2.75583 102.188 2.76145 102.168 2.76145 102.142C2.76145 102.118 2.75583 102.099 2.74458 102.085C2.73474 102.071 2.72208 102.063 2.7052 102.063C2.68622 102.063 2.67145 102.071 2.6602 102.085C2.65036 102.099 2.64614 102.118 2.64614 102.142C2.64614 102.168 2.65036 102.188 2.6602 102.201C2.67145 102.214 2.68622 102.22 2.7052 102.22ZM2.64614 102.046C2.6588 102.031 2.67216 102.02 2.68552 102.012C2.70028 102.005 2.71716 102.001 2.73614 102.001C2.76989 102.001 2.79661 102.014 2.8177 102.04C2.83809 102.067 2.84864 102.101 2.84864 102.142C2.84864 102.183 2.8381 102.217 2.8177 102.243C2.79661 102.27 2.76989 102.282 2.73614 102.282C2.71716 102.282 2.70028 102.279 2.68552 102.274C2.67216 102.267 2.6588 102.254 2.64614 102.237V102.277H2.56177V101.902H2.64614V102.046Z" fill="black"/>
<path d="M2.87744 102.007H2.96463L3.03494 102.189L3.09682 102.007H3.184L3.0715 102.302C3.06025 102.331 3.04619 102.352 3.02932 102.364C3.01385 102.376 2.99416 102.383 2.97025 102.383H2.92244V102.327H2.94775C2.96252 102.327 2.97307 102.324 2.97869 102.319C2.98572 102.315 2.99135 102.306 2.99557 102.293L2.99838 102.288L2.87744 102.007Z" fill="black"/>
<path d="M3.40906 101.917H3.50187V102.054H3.63687V101.917H3.72968V102.277H3.63687V102.125H3.50187V102.277H3.40906V101.917Z" fill="black"/>
<path d="M4.08546 102.142V102.167H3.88577C3.88718 102.186 3.89421 102.201 3.90546 102.212C3.91812 102.222 3.9364 102.226 3.9589 102.226C3.97718 102.226 3.99616 102.223 4.01515 102.218C4.03343 102.212 4.05312 102.205 4.07421 102.195V102.26C4.05311 102.267 4.03272 102.273 4.01233 102.277C3.99124 102.28 3.97085 102.282 3.95046 102.282C3.90124 102.282 3.86397 102.27 3.83796 102.246C3.81124 102.222 3.79858 102.187 3.79858 102.142C3.79858 102.099 3.81124 102.065 3.83796 102.04C3.86397 102.014 3.90054 102.001 3.94765 102.001C3.98843 102.001 4.02148 102.014 4.04609 102.04C4.0721 102.065 4.08546 102.099 4.08546 102.142L4.08546 102.142ZM3.99827 102.113C3.99827 102.097 3.99335 102.084 3.98421 102.074C3.97437 102.063 3.96171 102.057 3.94484 102.057C3.92937 102.057 3.91671 102.062 3.90546 102.071C3.89421 102.081 3.88718 102.095 3.88577 102.113L3.99827 102.113Z" fill="black"/>
<path d="M4.15222 102.007H4.2366V102.277H4.15222V102.007ZM4.15222 101.902H4.2366V101.973H4.15222V101.902Z" fill="black"/>
<path d="M4.40542 102.237V102.378H4.32104V102.007H4.40542V102.046C4.41808 102.031 4.43144 102.02 4.44479 102.012C4.45956 102.005 4.47644 102.001 4.49542 102.001C4.52917 102.001 4.55589 102.014 4.57698 102.04C4.59737 102.067 4.60792 102.101 4.60792 102.142C4.60792 102.183 4.59737 102.217 4.57698 102.243C4.55589 102.27 4.52917 102.282 4.49542 102.282C4.47644 102.282 4.45956 102.279 4.44479 102.274C4.43144 102.267 4.41808 102.254 4.40542 102.237V102.237ZM4.46448 102.063C4.4455 102.063 4.43073 102.071 4.41948 102.085C4.40964 102.099 4.40542 102.118 4.40542 102.142C4.40542 102.168 4.40964 102.188 4.41948 102.201C4.43073 102.214 4.4455 102.22 4.46448 102.22C4.48136 102.22 4.49401 102.214 4.50386 102.201C4.51511 102.188 4.52073 102.168 4.52073 102.142C4.52073 102.118 4.51511 102.099 4.50386 102.085C4.49401 102.071 4.48136 102.063 4.46448 102.063Z" fill="black"/>
<path d="M4.67322 102.007H4.75759V102.277H4.67322V102.007ZM4.67322 101.902H4.75759V101.973H4.67322V101.902Z" fill="black"/>
<path d="M0.376464 102.395V102.451H0.328652C0.315293 102.451 0.306152 102.454 0.300527 102.459C0.296309 102.464 0.294902 102.471 0.294902 102.482V102.499H0.368027V102.561H0.294902V102.769H0.210527V102.561H0.165527V102.499H0.210527V102.482C0.210527 102.452 0.217559 102.431 0.233027 102.417C0.249902 102.402 0.275216 102.395 0.308966 102.395L0.376464 102.395Z" fill="black"/>
<path d="M0.613385 102.572C0.60565 102.568 0.597916 102.566 0.590885 102.566C0.58315 102.565 0.575416 102.563 0.568385 102.563C0.545885 102.563 0.527604 102.571 0.514946 102.586C0.503696 102.599 0.498071 102.619 0.498071 102.645V102.769H0.413696V102.499H0.498071V102.544C0.509321 102.527 0.521275 102.515 0.534633 102.507C0.549398 102.498 0.566977 102.493 0.588071 102.493H0.596509C0.600024 102.493 0.605649 102.495 0.613384 102.496L0.613385 102.572Z" fill="black"/>
<path d="M0.782847 102.555C0.763862 102.555 0.749097 102.562 0.737847 102.575C0.728003 102.588 0.723784 102.608 0.723784 102.634C0.723784 102.66 0.728003 102.681 0.737847 102.696C0.749097 102.709 0.763862 102.715 0.782847 102.715C0.801127 102.715 0.815191 102.709 0.825035 102.696C0.836285 102.681 0.84191 102.66 0.84191 102.634C0.84191 102.608 0.836285 102.588 0.825035 102.575C0.815191 102.562 0.801129 102.555 0.782847 102.555ZM0.782847 102.493C0.829252 102.493 0.865816 102.506 0.892535 102.533C0.91855 102.557 0.93191 102.591 0.93191 102.634C0.93191 102.679 0.918551 102.714 0.892535 102.738C0.865816 102.762 0.829254 102.774 0.782847 102.774C0.735737 102.774 0.699175 102.762 0.673158 102.738C0.648549 102.714 0.636597 102.679 0.636597 102.634C0.636597 102.591 0.64855 102.557 0.673158 102.533C0.699174 102.506 0.735737 102.493 0.782847 102.493Z" fill="black"/>
<path d="M1.24201 102.544C1.25326 102.527 1.26591 102.515 1.28138 102.507C1.29615 102.498 1.31302 102.493 1.33201 102.493C1.36154 102.493 1.38545 102.503 1.40232 102.521C1.4192 102.54 1.42763 102.568 1.42763 102.606V102.769H1.34044V102.628V102.623V102.611C1.34044 102.593 1.33763 102.58 1.33201 102.572C1.32638 102.563 1.31654 102.558 1.30388 102.558C1.28841 102.558 1.27646 102.565 1.26732 102.578C1.25748 102.591 1.25326 102.611 1.25326 102.637V102.769H1.16607V102.628C1.16607 102.599 1.16326 102.58 1.15763 102.572C1.15341 102.563 1.14497 102.558 1.13232 102.558C1.11544 102.558 1.10208 102.566 1.09294 102.58C1.0831 102.594 1.07888 102.613 1.07888 102.637V102.769H0.994507V102.499H1.07888V102.538C1.09013 102.523 1.10209 102.512 1.11544 102.504C1.13021 102.497 1.14497 102.493 1.16044 102.493C1.17872 102.493 1.1949 102.498 1.20826 102.507C1.22302 102.517 1.23427 102.529 1.24201 102.544L1.24201 102.544Z" fill="black"/>
<path d="M1.77146 102.423V102.499H1.86146V102.561H1.77146V102.676C1.77146 102.687 1.77287 102.696 1.77709 102.701C1.78271 102.705 1.79256 102.707 1.80803 102.707H1.85303V102.769H1.7799C1.74615 102.769 1.72154 102.762 1.70678 102.749C1.69342 102.734 1.68709 102.71 1.68709 102.676V102.561H1.64209V102.499H1.68709V102.423L1.77146 102.423Z" fill="black"/>
<path d="M2.18345 102.606V102.769H2.09627V102.645C2.09627 102.621 2.09486 102.605 2.09345 102.597C2.09345 102.588 2.09205 102.58 2.09064 102.575C2.08642 102.569 2.0822 102.566 2.07658 102.563C2.07095 102.56 2.06392 102.558 2.05689 102.558C2.03791 102.558 2.02314 102.566 2.01189 102.58C2.00205 102.594 1.99783 102.613 1.99783 102.637V102.769H1.91345V102.395H1.99783V102.538C2.01048 102.523 2.02455 102.512 2.04002 102.504C2.05478 102.497 2.07095 102.493 2.08783 102.493C2.11947 102.493 2.14267 102.503 2.15814 102.521C2.17501 102.54 2.18345 102.568 2.18345 102.606L2.18345 102.606Z" fill="black"/>
<path d="M2.53151 102.634V102.659H2.33182C2.33322 102.678 2.34025 102.693 2.3515 102.704C2.36416 102.714 2.38244 102.718 2.40494 102.718C2.42322 102.718 2.44221 102.715 2.46119 102.71C2.47947 102.704 2.49916 102.697 2.52025 102.687V102.752C2.49916 102.76 2.47877 102.765 2.45838 102.769C2.43728 102.772 2.41689 102.774 2.3965 102.774C2.34728 102.774 2.31002 102.762 2.284 102.738C2.25728 102.714 2.24463 102.679 2.24463 102.634C2.24463 102.591 2.25729 102.557 2.284 102.533C2.31002 102.506 2.34658 102.493 2.39369 102.493C2.43447 102.493 2.46752 102.506 2.49213 102.533C2.51815 102.557 2.53151 102.591 2.53151 102.634L2.53151 102.634ZM2.44432 102.606C2.44432 102.589 2.4394 102.576 2.43026 102.566C2.42041 102.555 2.40776 102.549 2.39088 102.549C2.37541 102.549 2.36276 102.554 2.35151 102.563C2.34026 102.573 2.33323 102.587 2.33182 102.606L2.44432 102.606Z" fill="black"/>
<path d="M2.77197 102.409H2.87604L3.00541 102.656V102.409H3.0926V102.769H2.99135L2.85916 102.521V102.769H2.77197L2.77197 102.409Z" fill="black"/>
<path d="M3.30775 102.555C3.28876 102.555 3.274 102.562 3.26275 102.575C3.25291 102.588 3.24869 102.608 3.24869 102.634C3.24869 102.66 3.25291 102.681 3.26275 102.696C3.274 102.709 3.28876 102.715 3.30775 102.715C3.32603 102.715 3.34009 102.709 3.34994 102.696C3.36119 102.681 3.36681 102.66 3.36681 102.634C3.36681 102.608 3.36119 102.588 3.34994 102.575C3.34009 102.562 3.32603 102.555 3.30775 102.555ZM3.30775 102.493C3.35415 102.493 3.39072 102.506 3.41744 102.533C3.44345 102.557 3.45681 102.591 3.45681 102.634C3.45681 102.679 3.44345 102.714 3.41744 102.738C3.39072 102.762 3.35416 102.774 3.30775 102.774C3.26064 102.774 3.22408 102.762 3.19806 102.738C3.17345 102.714 3.1615 102.679 3.1615 102.634C3.1615 102.591 3.17345 102.557 3.19806 102.533C3.22408 102.506 3.26064 102.493 3.30775 102.493Z" fill="black"/>
<path d="M3.5166 102.665V102.499H3.60098V102.527V102.583V102.625V102.673C3.60238 102.683 3.6052 102.689 3.60941 102.693C3.61293 102.698 3.61785 102.703 3.62348 102.707C3.6291 102.709 3.63543 102.71 3.64316 102.71C3.66004 102.71 3.6727 102.703 3.68254 102.69C3.69379 102.677 3.69941 102.658 3.69941 102.634V102.499H3.7866V102.769H3.69941V102.729C3.68606 102.746 3.67199 102.759 3.65723 102.766C3.64387 102.772 3.6291 102.774 3.61223 102.774C3.57988 102.774 3.55598 102.765 3.5391 102.746C3.52363 102.728 3.5166 102.701 3.5166 102.665V102.665Z" fill="black"/>
<path d="M4.13963 102.606V102.769H4.05244V102.642C4.05244 102.62 4.05104 102.605 4.04963 102.597C4.04963 102.588 4.04822 102.58 4.04682 102.575C4.0426 102.569 4.03838 102.566 4.03275 102.563C4.02713 102.56 4.0201 102.558 4.01307 102.558C3.99408 102.558 3.97932 102.566 3.96807 102.58C3.95822 102.594 3.954 102.613 3.954 102.637V102.769H3.86963V102.499H3.954V102.538C3.96666 102.523 3.98072 102.512 3.99619 102.504C4.01096 102.497 4.02713 102.493 4.044 102.493C4.07564 102.493 4.09885 102.503 4.11432 102.521C4.13119 102.54 4.13963 102.568 4.13963 102.606L4.13963 102.606Z" fill="black"/>
<path d="M4.39417 102.409H4.54885C4.59385 102.409 4.62831 102.419 4.65292 102.44C4.67682 102.461 4.68948 102.49 4.68948 102.527C4.68948 102.565 4.67682 102.594 4.65292 102.614C4.62831 102.635 4.59385 102.645 4.54885 102.645H4.48698V102.769H4.39417L4.39417 102.409ZM4.48698 102.476V102.578H4.5376C4.55588 102.578 4.56995 102.574 4.57979 102.566C4.58893 102.557 4.59385 102.544 4.59385 102.527C4.59385 102.51 4.58893 102.498 4.57979 102.49C4.56995 102.481 4.55588 102.476 4.5376 102.476L4.48698 102.476Z" fill="black"/>
<path d="M4.95164 102.572C4.94391 102.568 4.93617 102.566 4.92914 102.566C4.92141 102.565 4.91367 102.563 4.90664 102.563C4.88414 102.563 4.86586 102.571 4.8532 102.586C4.84195 102.599 4.83633 102.619 4.83633 102.645V102.769H4.75195V102.499H4.83633V102.544C4.84758 102.527 4.85953 102.515 4.87289 102.507C4.88766 102.498 4.90523 102.493 4.92633 102.493H4.93477C4.93828 102.493 4.94391 102.495 4.95164 102.496L4.95164 102.572Z" fill="black"/>
<path d="M5.12184 102.555C5.10285 102.555 5.08809 102.562 5.07684 102.575C5.06699 102.588 5.06277 102.608 5.06277 102.634C5.06277 102.66 5.06699 102.681 5.07684 102.696C5.08809 102.709 5.10285 102.715 5.12184 102.715C5.14012 102.715 5.15418 102.709 5.16402 102.696C5.17527 102.681 5.1809 102.66 5.1809 102.634C5.1809 102.608 5.17527 102.588 5.16402 102.575C5.15418 102.562 5.14012 102.555 5.12184 102.555ZM5.12184 102.493C5.16824 102.493 5.20481 102.506 5.23152 102.533C5.25754 102.557 5.2709 102.591 5.2709 102.634C5.2709 102.679 5.25754 102.714 5.23152 102.738C5.20481 102.762 5.16824 102.774 5.12184 102.774C5.07473 102.774 5.03816 102.762 5.01215 102.738C4.98754 102.714 4.97559 102.679 4.97559 102.634C4.97559 102.591 4.98754 102.557 5.01215 102.533C5.03816 102.506 5.07473 102.493 5.12184 102.493Z" fill="black"/>
<path d="M5.33275 102.499H5.41712V102.763C5.41712 102.8 5.40868 102.829 5.39181 102.848C5.37493 102.866 5.34962 102.876 5.31587 102.876H5.27368V102.819H5.28774C5.30462 102.819 5.31587 102.815 5.32149 102.808C5.32853 102.8 5.33274 102.786 5.33274 102.763L5.33275 102.499ZM5.33275 102.395H5.41712V102.465H5.33275V102.395Z" fill="black"/>
<path d="M5.76869 102.634V102.659H5.569C5.5704 102.678 5.57744 102.693 5.58869 102.704C5.60134 102.714 5.61962 102.718 5.64212 102.718C5.66041 102.718 5.67939 102.715 5.69837 102.71C5.71666 102.704 5.73634 102.697 5.75744 102.687V102.752C5.73634 102.76 5.71595 102.765 5.69556 102.769C5.67447 102.772 5.65408 102.774 5.63369 102.774C5.58447 102.774 5.5472 102.762 5.52119 102.738C5.49447 102.714 5.48181 102.679 5.48181 102.634C5.48181 102.591 5.49447 102.557 5.52119 102.533C5.5472 102.506 5.58377 102.493 5.63087 102.493C5.67166 102.493 5.7047 102.506 5.72931 102.533C5.75533 102.557 5.76869 102.591 5.76869 102.634L5.76869 102.634ZM5.6815 102.606C5.6815 102.589 5.67658 102.576 5.66744 102.566C5.6576 102.555 5.64494 102.549 5.62806 102.549C5.6126 102.549 5.59994 102.554 5.58869 102.563C5.57744 102.573 5.57041 102.587 5.569 102.606L5.6815 102.606Z" fill="black"/>
<path d="M6.05204 102.507V102.578C6.04079 102.57 6.02814 102.565 6.01548 102.561C6.00423 102.557 5.99158 102.555 5.97892 102.555C5.95642 102.555 5.93744 102.563 5.92267 102.578C5.90931 102.591 5.90298 102.61 5.90298 102.634C5.90298 102.66 5.90931 102.681 5.92267 102.696C5.93744 102.709 5.95642 102.715 5.97892 102.715C5.99369 102.715 6.00705 102.714 6.0183 102.71C6.03095 102.704 6.0422 102.698 6.05205 102.69V102.76C6.03869 102.766 6.02462 102.769 6.00986 102.772C5.9965 102.773 5.98314 102.774 5.97048 102.774C5.92126 102.774 5.88329 102.762 5.85517 102.738C5.82845 102.714 5.8158 102.679 5.8158 102.634C5.8158 102.591 5.82845 102.557 5.85517 102.533C5.8833 102.506 5.92127 102.493 5.97048 102.493C5.98314 102.493 5.9965 102.495 6.00986 102.499C6.02462 102.501 6.03869 102.504 6.05205 102.507H6.05204Z" fill="black"/>
<path d="M6.22007 102.423V102.499H6.31007V102.561H6.22007V102.676C6.22007 102.687 6.22148 102.696 6.2257 102.701C6.23132 102.705 6.24117 102.707 6.25664 102.707H6.30164V102.769H6.22851C6.19476 102.769 6.17015 102.762 6.15539 102.749C6.14203 102.734 6.1357 102.71 6.1357 102.676V102.561H6.0907V102.499H6.1357V102.423L6.22007 102.423Z" fill="black"/>
</g>
<defs>
<clipPath id="clip0_6_952">
<rect width="102" height="103" fill="white"/>
</clipPath>
</defs>
</svg>
