<svg width="91" height="92" viewBox="0 0 91 92" fill="none" xmlns="http://www.w3.org/2000/svg">
<g clip-path="url(#clip0_1_4)">
<path d="M62.0016 52.376H6.80796C3.11174 52.376 0.0317383 49.296 0.0317383 45.5998C0.0317383 41.9036 3.11174 38.8236 6.80796 38.8236H62.1248C65.821 38.8236 68.901 41.9036 68.901 45.5998C68.7772 49.296 65.821 52.376 62.002 52.376H62.0016Z" fill="black"/>
<path d="M38.1008 91.0608H6.80796C3.11174 91.0608 0.0317383 87.9808 0.0317383 84.2846C0.0317383 80.5884 3.11174 77.5084 6.80796 77.5084H38.1008C41.797 77.5084 44.877 80.5884 44.877 84.2846C44.8778 88.1036 41.7979 91.0608 38.1016 91.0608H38.1008Z" fill="black"/>
<path d="M83.5616 13.568H6.80796C3.11174 13.568 0.0317383 10.488 0.0317383 6.79178C0.0317383 3.09556 3.11174 0.015564 6.80796 0.015564H83.6848C87.381 0.015564 90.461 3.09556 90.461 6.79178C90.3372 10.488 87.381 13.568 83.562 13.568H83.5616Z" fill="black"/>
</g>
<defs>
<clipPath id="clip0_1_4">
<rect width="91" height="92" fill="white"/>
</clipPath>
</defs>
</svg>
