<svg width="216" height="159" viewBox="0 0 216 159" fill="none" xmlns="http://www.w3.org/2000/svg">
<g clip-path="url(#clip0_1_638)">
<path fill-rule="evenodd" clip-rule="evenodd" d="M107.84 10.8717C116.678 10.8717 124.837 12.9121 132.315 16.3105C134.355 17.6703 135.715 18.3509 136.394 19.03C141.154 12.2315 147.272 2.03262 154.07 0.673002C174.466 -3.40624 179.226 13.5911 183.984 25.1481C196.222 53.7023 206.421 51.6635 213.219 67.3029C222.737 91.0988 198.262 104.017 186.704 93.1376C170.387 78.1806 167.667 51.666 160.869 23.7905C160.869 21.071 157.469 18.3516 154.07 22.4307C152.03 24.4711 150.67 27.1904 149.311 29.91C160.869 42.8282 166.987 60.5047 169.707 76.8233C175.145 118.295 154.75 160.45 107.839 158.408C90.8414 159.089 74.5248 153.649 62.2879 141.411C46.6501 124.413 42.5709 99.2559 45.9713 76.8221C48.0117 59.8247 54.8102 42.1481 66.3671 29.9088C64.3268 27.1893 62.967 24.4699 60.9283 22.4295C57.5282 18.3503 54.8086 21.0698 54.1298 23.7893C48.0101 51.6643 44.6117 78.1819 28.974 93.1364C16.7362 104.014 -7.74005 91.096 2.45847 67.3017C8.57814 51.6639 18.775 53.7044 31.0128 25.1468C35.7724 13.5883 41.2117 -3.40746 60.9267 0.671787C67.7251 2.03152 73.8448 12.2303 78.6032 19.0288C86.7617 13.5899 96.2798 10.8703 107.838 10.8703L107.84 10.8717ZM79.9645 57.1058C81.3242 57.1058 83.3646 57.7864 84.0437 59.1462H83.3631C80.6436 59.1462 78.6034 61.1866 78.6034 63.9058C78.6034 66.6253 80.6438 69.3447 83.3631 69.3447C85.4035 69.3447 86.7632 67.985 88.1227 65.9446V68.664C88.1227 74.1029 84.0435 79.5418 79.9642 79.5418C75.2046 79.5418 71.8058 74.1029 71.8058 68.664C71.8058 62.5444 75.2059 57.1055 79.9642 57.1055L79.9645 57.1058ZM137.753 57.1058C139.113 57.1058 140.473 57.7864 141.832 59.1462H141.152C138.432 59.1462 135.713 61.1866 135.713 63.9058C135.713 66.6253 138.432 69.3447 141.152 69.3447C143.192 69.3447 144.552 67.985 145.231 65.9446C145.912 66.6252 145.912 67.3043 145.912 68.664C145.912 74.1029 141.832 79.5418 137.753 79.5418C132.993 79.5418 128.914 74.1029 128.914 68.664C128.914 62.5444 132.993 57.1055 137.753 57.1055V57.1058ZM108.518 97.2186C123.475 97.2186 135.034 104.698 135.034 114.895C135.034 124.413 124.156 132.572 110.559 132.572V141.411C113.959 141.411 117.357 140.051 120.758 137.331C123.477 135.972 125.517 139.372 123.477 140.732C118.718 144.132 113.278 145.491 108.52 145.491C103.761 145.491 99.0021 144.131 94.2425 140.732C92.2021 139.372 94.2425 135.972 96.2829 137.331C99.683 140.051 103.081 141.411 107.161 141.411V132.572C92.8828 132.572 82.0047 124.413 82.0047 114.895C82.0047 104.696 94.2424 97.2186 108.52 97.2186H108.518ZM111.919 103.338L111.238 108.777C108.518 108.096 106.478 108.096 104.439 108.777V103.338H111.919H111.919ZM115.319 104.019C121.438 104.7 131.635 109.458 128.237 119.657C128.237 114.218 122.117 110.139 114.639 108.779L115.32 104.019L115.319 104.019ZM107.839 18.3548C173.107 16.3145 188.745 154.332 107.839 150.932C26.2545 154.332 42.5715 16.3172 107.839 18.3548Z" fill="black"/>
</g>
<defs>
<clipPath id="clip0_1_638">
<rect width="216" height="159" fill="white"/>
</clipPath>
</defs>
</svg>
