<svg width="147" height="152" viewBox="0 0 147 152" fill="none" xmlns="http://www.w3.org/2000/svg">
<g clip-path="url(#clip0_1_225)">
<path fill-rule="evenodd" clip-rule="evenodd" d="M138.523 88.4028C143.042 93.9263 146.055 100.453 146.055 107.482C146.055 108.989 146.055 110.495 145.552 112.002C143.544 125.056 132.498 134.596 120.949 140.621C106.891 148.153 89.8173 151.165 73.7511 151.165C57.685 151.165 40.1111 148.153 26.0514 140.621C14.5026 134.596 3.45667 125.056 1.44848 112.002C1.44848 110.495 0.945801 108.989 0.945801 107.482C0.945801 100.453 3.95839 93.9251 8.47786 88.4028C6.971 74.8458 9.48205 62.293 15.0055 51.7501C7.97626 46.7293 3.45679 37.6916 3.45679 28.1513C3.45679 12.5859 14.5027 0.535858 28.5625 0.535858C39.6084 0.535858 48.6462 8.06792 52.1613 19.1139C58.6889 16.6028 66.2198 15.5988 73.7516 15.5988C81.2833 15.5988 88.3129 16.603 94.8394 19.1139C98.3544 8.06792 107.894 0.535858 118.941 0.535858C132.498 0.535858 144.047 12.5859 144.047 28.1513C144.047 37.6916 139.026 46.7293 131.997 51.7501C137.52 62.2945 140.03 74.8461 138.524 88.4028H138.523ZM67.2239 140.118C68.7308 140.118 69.735 139.616 71.2406 139.616V130.075C64.713 129.573 59.6919 127.063 59.6919 124.05C59.6919 120.034 65.7171 115.012 73.7504 115.012C81.2825 115.012 87.3074 120.033 87.3074 124.05C87.3074 127.063 82.2866 129.574 75.7586 130.075V139.616C77.2655 139.616 78.7712 140.118 79.7753 140.118C82.2863 140.621 83.2904 143.131 82.7879 144.135C114.923 141.624 139.525 126.561 139.525 107.482C139.525 101.457 137.014 95.4323 131.993 90.4112C137.517 54.7618 109.901 22.125 73.751 22.125C37.0984 22.125 9.48351 54.7618 15.5087 90.4112C10.4879 95.432 7.47532 101.457 7.47532 107.482C7.47532 126.562 32.0782 141.627 64.2128 144.135C64.2128 143.131 64.7155 141.122 67.2254 140.118H67.2239ZM78.7727 144.638C75.2576 143.131 71.7434 143.131 68.2283 144.638H73.7519H78.7727V144.638ZM48.6468 82.8783C47.14 83.381 46.1358 84.8867 46.1358 86.3934C46.1358 88.4017 48.1442 90.4101 50.1525 90.4101C51.6593 90.4101 53.1651 89.4059 53.6676 87.899C55.1744 92.9198 51.6592 97.9409 46.1355 97.9409C42.1188 97.9409 38.6034 94.4258 38.6034 90.4088C38.6034 84.8852 43.6242 81.371 48.6453 82.8767L48.6468 82.8783ZM98.356 82.8783C99.8628 83.381 100.867 84.8867 100.867 86.3934C100.867 88.4017 98.8587 90.4101 96.8504 90.4101C95.3435 90.4101 93.8378 89.4059 93.3353 87.899C91.8284 92.9198 95.3436 97.9409 100.867 97.9409C104.884 97.9409 108.399 94.4258 108.399 90.4088C108.399 84.8852 103.379 81.371 98.3575 82.8767L98.356 82.8783ZM100.364 66.8116C110.406 66.8116 126.976 79.3644 127.98 95.4311C128.984 111.498 116.934 120.537 106.39 120.537C96.3477 120.537 80.2798 90.9128 80.2798 80.8716C80.7824 70.8297 90.3216 66.8131 100.363 66.8131L100.364 66.8116ZM100.364 76.8534C92.8323 76.8534 87.3099 82.8786 87.3099 90.4104C87.3099 97.9424 92.8335 103.967 100.364 103.967C107.394 103.967 113.419 97.9421 113.419 90.4104C113.419 82.8783 107.394 76.8534 100.364 76.8534ZM46.6394 66.8116C36.5976 66.8116 20.5296 79.3644 19.0239 95.4311C18.0198 111.498 30.5727 120.537 40.6142 120.537C51.1586 120.537 67.2256 90.9128 66.724 80.8716C66.2213 70.8297 57.1838 66.8131 46.6403 66.8131L46.6394 66.8116ZM47.1421 76.8534C54.1714 76.8534 60.1965 82.8786 60.1965 90.4104C60.1965 97.9424 54.1714 103.967 47.1421 103.967C39.61 103.967 33.5852 97.9421 33.5852 90.4104C33.5852 82.8783 39.6103 76.8534 47.1421 76.8534Z" fill="black"/>
</g>
<defs>
<clipPath id="clip0_1_225">
<rect width="147" height="152" fill="white"/>
</clipPath>
</defs>
</svg>
