<svg width="96" height="96" viewBox="0 0 96 96" fill="none" xmlns="http://www.w3.org/2000/svg">
<g clip-path="url(#clip0_1_100)">
<path d="M30.0531 55.2H88.6767C92.5938 55.2 95.8579 51.9536 95.8579 48.0577C95.8579 44.1618 92.5938 40.9155 88.6767 40.9155H30.0531C26.1359 40.9155 22.8718 44.1618 22.8718 48.0577C22.8727 51.9536 26.0056 55.2 30.0531 55.2V55.2Z" fill="black"/>
<path d="M55.3827 95.9745H88.5461C92.4633 95.9745 95.7274 92.7281 95.7274 88.8322C95.7274 84.9363 92.4633 81.69 88.5461 81.69H55.3827C51.4655 81.69 48.2014 84.9363 48.2014 88.8322C48.2014 92.8575 51.4655 95.9745 55.3827 95.9745V95.9745Z" fill="black"/>
<path d="M7.20448 14.2957H88.6768C92.594 14.2957 95.8581 11.0493 95.8581 7.15343C95.8581 3.25755 92.594 0.0111694 88.6768 0.0111694L7.20448 0.0120752C3.28731 0.0120752 0.0231934 3.25845 0.0231934 7.15434C0.024104 11.0493 3.15698 14.2957 7.20448 14.2957V14.2957Z" fill="black"/>
</g>
<defs>
<clipPath id="clip0_1_100">
<rect width="96" height="96" fill="white"/>
</clipPath>
</defs>
</svg>
