<svg width="160" height="148" viewBox="0 0 160 148" fill="none" xmlns="http://www.w3.org/2000/svg">
<g clip-path="url(#clip0_1_302)">
<path fill-rule="evenodd" clip-rule="evenodd" d="M105.479 46.001C107.497 46.001 109.515 48.5241 109.515 52.055C109.515 55.5869 107.497 58.6139 105.479 58.6139C102.956 58.6139 100.938 55.5869 100.938 52.055C100.938 48.5231 102.956 46.001 105.479 46.001ZM76.2174 73.2446H83.2803C96.9021 73.2446 96.9021 88.8845 83.2803 88.8845H76.2174C63.6045 88.8845 64.1097 73.2446 76.2174 73.2446ZM103.461 104.019C87.3174 123.189 73.191 123.189 56.544 104.019C75.2109 111.081 84.7968 111.081 103.461 104.019ZM55.029 46.0016C52.5059 46.0016 50.4879 48.5247 50.4879 52.0556C50.4879 55.5875 52.5058 58.6145 55.029 58.6145C57.552 58.6145 59.5701 55.5875 59.5701 52.0556C59.5701 48.5237 57.5521 46.0016 55.029 46.0016ZM6.59696 58.6145C3.06506 67.6955 4.0739 79.8032 5.08289 91.4075C5.58797 106.542 4.57781 111.083 0.0380859 121.173L15.678 117.641L19.2099 134.794L29.8047 129.749L32.8317 137.821L41.4087 136.307L42.4177 147.406L50.9947 142.865L50.4896 147.91C72.6872 146.395 87.3176 146.395 110.022 147.91L109.517 142.865L118.094 147.406L119.103 136.307L127.174 137.821L130.201 129.749L140.796 134.794L144.832 117.641L159.967 121.173C155.426 111.083 154.417 106.542 155.426 91.4075C155.931 79.8035 157.444 67.6958 153.912 58.6145C154.921 43.4798 157.947 7.15549 140.795 1.10149C128.687 -2.93441 115.065 10.6874 106.994 19.7684C94.3807 16.7414 66.1306 16.7414 53.0116 19.7684C44.9398 10.6874 31.318 -2.93441 19.2106 1.10149C2.05784 7.15549 5.08484 43.4795 6.59774 58.6145H6.59696ZM57.048 141.355L58.0569 132.777L47.4621 137.822L46.4532 129.245L36.8673 131.263L33.3354 121.677L23.2455 126.218L19.7136 109.066L8.61476 113.102C12.1467 107.048 10.6327 102.003 10.6327 94.4347C22.2367 85.3537 40.9027 79.3 61.5877 77.2819C63.1018 71.7319 68.1466 67.192 76.2187 67.192H83.2816C91.8586 67.192 96.9034 71.7331 98.9215 77.2819C119.101 79.2999 138.273 85.3537 149.373 94.4347C149.373 102.003 147.858 107.048 151.391 113.102L140.292 109.066L136.76 126.218L127.174 121.677L123.642 131.263L113.552 129.245L112.543 137.822L102.453 132.777L102.958 141.355C76.2196 139.84 83.7877 139.84 57.0493 141.355H57.048ZM79.7508 23.8055L71.1738 55.5905L66.129 23.3015C74.2008 22.7964 85.8048 22.7964 94.3818 23.3015L88.8318 55.5905L79.7508 23.8055ZM31.8228 21.7875C25.2639 21.7875 20.2188 27.3375 20.2188 33.8952C20.2188 36.9222 21.2277 39.4452 22.7418 41.4633C25.7688 37.9314 30.8136 34.9044 36.8676 32.8863C38.8856 32.3812 40.9035 31.8773 42.9216 31.3722C41.9126 25.8222 37.3716 21.7863 31.8228 21.7863L31.8228 21.7875ZM55.0293 36.9222C49.9845 36.9222 45.4434 42.9762 45.4434 50.544C45.4434 57.6069 49.9845 63.6609 55.0293 63.6609C60.0741 63.6609 64.1103 57.6069 64.1103 50.544C64.1103 42.9759 60.0744 36.9222 55.0293 36.9222ZM12.6513 58.6158C10.6333 66.1839 10.1282 74.7594 10.6333 84.3456L35.3539 71.2287L17.1922 70.2197L34.345 57.6068C31.8219 57.6068 13.1563 56.0928 12.6514 58.6158H12.6513ZM128.688 21.7878C134.742 21.7878 140.292 27.3378 140.292 33.8955C140.292 36.9225 139.283 39.4455 137.265 41.4636C134.238 37.9317 129.193 34.9047 123.139 32.8866C121.121 32.3815 119.104 31.8776 117.085 31.3725C118.094 25.8225 123.139 21.7866 128.689 21.7866L128.688 21.7878ZM105.482 36.9225C110.527 36.9225 114.563 42.9765 114.563 50.5443C114.563 57.6072 110.527 63.6612 105.482 63.6612C100.437 63.6612 95.8959 57.6072 95.8959 50.5443C95.8959 42.9762 100.437 36.9225 105.482 36.9225V36.9225ZM147.86 58.6161C149.878 66.1842 149.878 74.7597 149.374 84.3459L124.653 71.229L142.815 70.22L125.662 57.6071C128.185 57.6071 146.851 56.0931 147.86 58.6161H147.86Z" fill="black"/>
</g>
<defs>
<clipPath id="clip0_1_302">
<rect width="160" height="148" fill="white"/>
</clipPath>
</defs>
</svg>
