<svg width="610" height="147" viewBox="0 0 610 147" fill="none" xmlns="http://www.w3.org/2000/svg">
<rect width="610" height="147" rx="30" fill="white"/>
<text fill="black" xml:space="preserve" style="white-space: pre" font-family="Montserrat" font-size="18" font-weight="500" letter-spacing="0em"><tspan x="97" y="60.453">Take the dog out for a long walk</tspan></text>
<path fill-rule="evenodd" clip-rule="evenodd" d="M569.492 117.844L575.724 124.076C578.567 126.919 582.932 122.554 580.06 119.711L573.857 113.508L580.06 107.276C582.932 104.433 578.567 100.068 575.724 102.94L569.492 109.143L563.289 102.94C560.446 100.068 556.081 104.433 558.924 107.276L565.156 113.508L558.924 119.711C556.081 122.554 560.446 126.919 563.289 124.076L569.492 117.844Z" fill="black"/>
<path d="M536.333 103.333H517.667C516.936 103.333 516.333 103.936 516.333 104.667V123.333C516.333 124.064 516.936 124.667 517.667 124.667H536.333C537.064 124.667 537.667 124.064 537.667 123.333V104.667C537.667 103.936 537.064 103.333 536.333 103.333ZM536.333 102C537.8 102 539 103.2 539 104.667V123.333C539 124.8 537.8 126 536.333 126H517.667C516.2 126 515 124.8 515 123.333V104.667C515 103.2 516.2 102 517.667 102H536.333Z" fill="black"/>
<path d="M472.472 102.368C472.827 102.523 473.111 102.807 473.267 103.162L473.491 103.676C473.529 103.761 473.65 103.761 473.687 103.676L473.912 103.162C474.068 102.807 474.352 102.523 474.707 102.368L475.221 102.143C475.306 102.105 475.306 101.984 475.221 101.947L474.708 101.722C474.353 101.567 474.069 101.283 473.913 100.927L473.687 100.413C473.65 100.328 473.529 100.328 473.491 100.413L473.267 100.927C473.111 101.283 472.827 101.567 472.472 101.722L471.958 101.947C471.873 101.984 471.873 102.105 471.958 102.143L472.472 102.368Z" fill="black"/>
<path d="M469.813 116.782C469.457 116.627 469.173 116.343 469.018 115.988L468.793 115.474C468.756 115.389 468.635 115.389 468.597 115.474L468.372 115.988C468.217 116.343 467.933 116.627 467.578 116.782L467.064 117.007C466.979 117.044 466.979 117.166 467.064 117.203L467.578 117.428C467.933 117.583 468.217 117.867 468.372 118.223L468.597 118.737C468.634 118.821 468.756 118.821 468.793 118.737L469.018 118.223C469.173 117.867 469.457 117.583 469.813 117.428L470.327 117.203C470.411 117.166 470.411 117.045 470.327 117.007L469.813 116.782Z" fill="black"/>
<path d="M488.306 102.368C488.662 102.523 488.945 102.807 489.101 103.162L489.326 103.676C489.363 103.761 489.484 103.761 489.522 103.676L489.746 103.162C489.902 102.807 490.186 102.523 490.541 102.368L491.055 102.143C491.14 102.105 491.14 101.984 491.055 101.947L490.542 101.722C490.187 101.567 489.903 101.283 489.748 100.927L489.523 100.413C489.485 100.328 489.364 100.328 489.327 100.413L489.102 100.927C488.947 101.283 488.663 101.567 488.307 101.722L487.793 101.947C487.708 101.984 487.708 102.105 487.793 102.143L488.306 102.368Z" fill="black"/>
<path d="M495.949 117.007L495.435 116.782C495.079 116.626 494.795 116.342 494.64 115.987L494.415 115.473C494.378 115.388 494.257 115.388 494.219 115.473L493.994 115.987C493.839 116.343 493.555 116.626 493.2 116.782L492.686 117.007C492.601 117.044 492.601 117.165 492.686 117.203L493.2 117.427C493.555 117.583 493.839 117.867 493.994 118.222L494.219 118.736C494.256 118.821 494.378 118.821 494.415 118.736L494.64 118.222C494.795 117.867 495.079 117.583 495.435 117.427L495.949 117.203C496.035 117.165 496.035 117.044 495.949 117.007Z" fill="black"/>
<path d="M482.624 126.09C482.269 125.935 481.985 125.651 481.829 125.296L481.605 124.782C481.567 124.697 481.446 124.697 481.409 124.782L481.184 125.296C481.028 125.651 480.744 125.935 480.389 126.09L479.875 126.315C479.79 126.352 479.79 126.474 479.875 126.511L480.389 126.736C480.745 126.891 481.028 127.175 481.184 127.531L481.409 128.045C481.446 128.129 481.567 128.129 481.605 128.045L481.829 127.531C481.985 127.175 482.269 126.891 482.624 126.736L483.138 126.511C483.223 126.474 483.223 126.353 483.138 126.315L482.624 126.09Z" fill="black"/>
<path d="M489.753 115.978C489.712 115.742 489.791 115.503 489.961 115.336L494.111 111.291C494.823 110.598 495.074 109.58 494.766 108.635C494.459 107.69 493.657 107.015 492.674 106.872L486.94 106.039C486.704 106.005 486.499 105.857 486.394 105.641L483.829 100.445C483.39 99.5532 482.5 99 481.506 99C480.514 99 479.622 99.5533 479.183 100.444L476.619 105.641C476.513 105.855 476.309 106.004 476.073 106.038L470.338 106.871C469.355 107.014 468.553 107.69 468.246 108.635C467.94 109.58 468.19 110.598 468.902 111.29L473.051 115.335C473.222 115.502 473.301 115.743 473.26 115.978L472.28 121.689C472.112 122.668 472.507 123.639 473.311 124.223C473.765 124.553 474.296 124.72 474.831 124.72C475.243 124.72 475.657 124.621 476.04 124.419L481.17 121.723C481.381 121.612 481.633 121.612 481.845 121.723L486.974 124.419C487.853 124.881 488.899 124.807 489.704 124.223C490.507 123.64 490.902 122.668 490.735 121.688L489.753 115.978ZM487.915 116.293L488.895 122.004C488.963 122.406 488.715 122.634 488.605 122.714C488.496 122.795 488.201 122.959 487.841 122.769L482.712 120.073C481.956 119.677 481.055 119.677 480.299 120.073L475.17 122.77C474.81 122.96 474.515 122.795 474.406 122.715C474.296 122.636 474.048 122.407 474.118 122.006L475.097 116.294C475.241 115.454 474.962 114.596 474.352 114.001L470.202 109.957C469.911 109.673 469.976 109.341 470.019 109.213C470.061 109.084 470.202 108.777 470.605 108.718L476.339 107.885C477.184 107.763 477.913 107.233 478.291 106.468L480.855 101.271C481.036 100.905 481.37 100.865 481.506 100.865C481.642 100.865 481.978 100.905 482.157 101.27L484.721 106.466C485.099 107.232 485.828 107.761 486.673 107.885L492.407 108.718C492.81 108.777 492.951 109.082 492.992 109.212C493.034 109.341 493.1 109.672 492.809 109.956L488.659 114.001C488.049 114.596 487.771 115.453 487.915 116.293L487.915 116.293Z" fill="black"/>
<text fill="black" xml:space="preserve" style="white-space: pre" font-family="Montserrat" font-size="13" font-weight="300" letter-spacing="0em"><tspan x="104" y="121.66">October 28, 2022</tspan></text>
<g clip-path="url(#clip0_6_1315)">
<path fill-rule="evenodd" clip-rule="evenodd" d="M56.3174 45.2976C56.9356 45.2976 57.5539 46.0818 57.5539 47.1793C57.5539 48.277 56.9356 49.2178 56.3174 49.2178C55.5443 49.2178 54.926 48.277 54.926 47.1793C54.926 46.0815 55.5443 45.2976 56.3174 45.2976ZM47.352 53.7652H49.5159C53.6895 53.7652 53.6895 58.6263 49.5159 58.6263H47.352C43.4875 58.6263 43.6423 53.7652 47.352 53.7652ZM55.699 63.3301C50.7529 69.2885 46.4247 69.2885 41.3243 63.3301C47.0436 65.5253 49.9806 65.5253 55.699 63.3301ZM40.8601 45.2978C40.0871 45.2978 39.4688 46.082 39.4688 47.1794C39.4688 48.2772 40.0871 49.218 40.8601 49.218C41.6331 49.218 42.2514 48.2772 42.2514 47.1794C42.2514 46.0817 41.6332 45.2978 40.8601 45.2978ZM26.0212 49.218C24.9391 52.0405 25.2482 55.8037 25.5573 59.4104C25.7121 64.1145 25.4026 65.5259 24.0116 68.6619L28.8035 67.5642L29.8856 72.8955L33.1317 71.3275L34.0592 73.8363L36.687 73.3657L36.9962 76.8153L39.6241 75.4039L39.4693 76.9719C46.2704 76.5013 50.7529 76.5013 57.7091 76.9719L57.5544 75.4039L60.1823 76.8153L60.4914 73.3657L62.9645 73.8363L63.8919 71.3275L67.138 72.8955L68.3746 67.5642L73.0116 68.6619C71.6203 65.5259 71.3112 64.1145 71.6203 59.4104C71.7751 55.8038 72.2386 52.0406 71.1564 49.218C71.4656 44.514 72.393 33.224 67.1376 31.3424C63.4279 30.088 59.2543 34.3218 56.7814 37.1442C52.917 36.2034 44.2615 36.2034 40.242 37.1442C37.7689 34.3218 33.5954 30.088 29.8859 31.3424C24.6305 33.224 25.5579 44.5139 26.0214 49.218H26.0212ZM41.4787 74.9345L41.7878 72.2687L38.5417 73.8367L38.2326 71.1708L35.2956 71.798L34.2135 68.8186L31.1221 70.2301L30.0399 64.8988L26.6394 66.1532C27.7215 64.2715 27.2577 62.7036 27.2577 60.3513C30.813 57.5288 36.532 55.6473 42.8696 55.02C43.3335 53.295 44.8792 51.884 47.3524 51.884H49.5164C52.1442 51.884 53.6899 53.2954 54.3082 55.02C60.491 55.6473 66.3648 57.5288 69.7657 60.3513C69.7657 62.7036 69.3018 64.2715 70.384 66.1532L66.9835 64.8988L65.9014 70.2301L62.9644 68.8186L61.8822 71.798L58.7908 71.1708L58.4817 73.8367L55.3903 72.2687L55.545 74.9345C47.3526 74.4639 49.6714 74.4639 41.4791 74.9345H41.4787ZM48.4345 38.399L45.8067 48.2781L44.261 38.2424C46.7341 38.0854 50.2894 38.0854 52.9173 38.2424L51.2168 48.2781L48.4345 38.399ZM33.75 37.7718C31.7405 37.7718 30.1947 39.4968 30.1947 41.535C30.1947 42.4758 30.5039 43.26 30.9678 43.8872C31.8952 42.7895 33.4409 41.8487 35.2957 41.2214C35.914 41.0644 36.5323 40.9078 37.1506 40.7508C36.8414 39.0258 35.4501 37.7714 33.7501 37.7714L33.75 37.7718ZM40.8602 42.4758C39.3145 42.4758 37.9232 44.3575 37.9232 46.7096C37.9232 48.9049 39.3145 50.7865 40.8602 50.7865C42.4059 50.7865 43.6425 48.9049 43.6425 46.7096C43.6425 44.3574 42.406 42.4758 40.8602 42.4758ZM27.8761 49.2184C27.2579 51.5707 27.1031 54.236 27.2579 57.2155L34.8319 53.1387L29.2674 52.8251L34.5228 48.9048C33.7498 48.9048 28.0309 48.4342 27.8762 49.2184H27.8761ZM63.4283 37.7719C65.2832 37.7719 66.9837 39.4969 66.9837 41.5351C66.9837 42.4759 66.6745 43.2601 66.0562 43.8873C65.1288 42.7896 63.5831 41.8488 61.7283 41.2215C61.11 41.0645 60.4917 40.9079 59.8734 40.7509C60.1825 39.0259 61.7283 37.7715 63.4287 37.7715L63.4283 37.7719ZM56.3182 42.4759C57.8638 42.4759 59.1005 44.3576 59.1005 46.7097C59.1005 48.9049 57.8639 50.7866 56.3182 50.7866C54.7725 50.7866 53.3812 48.9049 53.3812 46.7097C53.3812 44.3575 54.7725 42.4759 56.3182 42.4759ZM69.3022 49.2185C69.9205 51.5708 69.9205 54.2361 69.7661 57.2156L62.1921 53.1387L67.7566 52.8251L62.5012 48.9049C63.2742 48.9049 68.9931 48.4343 69.3022 49.2185H69.3022Z" fill="black"/>
</g>
<defs>
<clipPath id="clip0_6_1315">
<rect width="49" height="46" fill="white" transform="translate(24 31)"/>
</clipPath>
</defs>
</svg>
