<svg width="610" height="147" viewBox="0 0 610 147" fill="none" xmlns="http://www.w3.org/2000/svg">
<rect width="610" height="147" rx="30" fill="white"/>
<text fill="black" xml:space="preserve" style="white-space: pre" font-family="Montserrat" font-size="18" font-weight="500" letter-spacing="0em"><tspan x="97" y="60.453">Pick up everyone&#x2019;s laundry!</tspan></text>
<path fill-rule="evenodd" clip-rule="evenodd" d="M569.492 117.844L575.724 124.076C578.567 126.919 582.932 122.554 580.06 119.711L573.857 113.508L580.06 107.276C582.932 104.433 578.567 100.068 575.724 102.94L569.492 109.143L563.289 102.94C560.446 100.068 556.081 104.433 558.924 107.276L565.156 113.508L558.924 119.711C556.081 122.554 560.446 126.919 563.289 124.076L569.492 117.844Z" fill="black"/>
<path d="M536.333 103.333H517.667C516.936 103.333 516.333 103.936 516.333 104.667V123.333C516.333 124.064 516.936 124.667 517.667 124.667H536.333C537.064 124.667 537.667 124.064 537.667 123.333V104.667C537.667 103.936 537.064 103.333 536.333 103.333ZM536.333 102C537.8 102 539 103.2 539 104.667V123.333C539 124.8 537.8 126 536.333 126H517.667C516.2 126 515 124.8 515 123.333V104.667C515 103.2 516.2 102 517.667 102H536.333Z" fill="black"/>
<path d="M472.472 102.368C472.827 102.523 473.111 102.807 473.267 103.162L473.491 103.676C473.529 103.761 473.65 103.761 473.687 103.676L473.912 103.162C474.068 102.807 474.352 102.523 474.707 102.368L475.221 102.143C475.306 102.106 475.306 101.984 475.221 101.947L474.708 101.722C474.353 101.567 474.069 101.283 473.913 100.927L473.687 100.413C473.65 100.329 473.529 100.329 473.491 100.413L473.267 100.927C473.111 101.283 472.827 101.567 472.472 101.722L471.958 101.947C471.873 101.984 471.873 102.105 471.958 102.143L472.472 102.368Z" fill="black"/>
<path d="M469.813 116.782C469.457 116.627 469.173 116.343 469.018 115.988L468.793 115.474C468.756 115.389 468.635 115.389 468.597 115.474L468.372 115.988C468.217 116.343 467.933 116.627 467.578 116.782L467.064 117.007C466.979 117.044 466.979 117.166 467.064 117.203L467.578 117.428C467.933 117.583 468.217 117.867 468.372 118.223L468.597 118.736C468.634 118.821 468.756 118.821 468.793 118.736L469.018 118.223C469.173 117.867 469.457 117.583 469.813 117.428L470.327 117.203C470.411 117.166 470.411 117.045 470.327 117.007L469.813 116.782Z" fill="black"/>
<path d="M488.306 102.368C488.662 102.523 488.945 102.807 489.101 103.162L489.326 103.676C489.363 103.761 489.484 103.761 489.522 103.676L489.746 103.162C489.902 102.807 490.186 102.523 490.541 102.368L491.055 102.143C491.14 102.106 491.14 101.984 491.055 101.947L490.542 101.722C490.187 101.567 489.903 101.283 489.748 100.927L489.523 100.413C489.485 100.329 489.364 100.329 489.327 100.413L489.102 100.927C488.947 101.283 488.663 101.567 488.307 101.722L487.793 101.947C487.708 101.984 487.708 102.105 487.793 102.143L488.306 102.368Z" fill="black"/>
<path d="M495.949 117.007L495.435 116.782C495.079 116.626 494.795 116.342 494.64 115.987L494.415 115.473C494.378 115.388 494.257 115.388 494.219 115.473L493.994 115.987C493.839 116.343 493.555 116.626 493.2 116.782L492.686 117.007C492.601 117.044 492.601 117.165 492.686 117.203L493.2 117.427C493.555 117.583 493.839 117.867 493.994 118.222L494.219 118.736C494.256 118.821 494.378 118.821 494.415 118.736L494.64 118.222C494.795 117.867 495.079 117.583 495.435 117.427L495.949 117.203C496.035 117.165 496.035 117.044 495.949 117.007Z" fill="black"/>
<path d="M482.624 126.09C482.269 125.935 481.985 125.651 481.829 125.296L481.605 124.782C481.567 124.697 481.446 124.697 481.409 124.782L481.184 125.296C481.028 125.651 480.744 125.935 480.389 126.09L479.875 126.315C479.79 126.352 479.79 126.474 479.875 126.511L480.389 126.736C480.745 126.891 481.028 127.175 481.184 127.531L481.409 128.045C481.446 128.129 481.567 128.129 481.605 128.045L481.829 127.531C481.985 127.175 482.269 126.891 482.624 126.736L483.138 126.511C483.223 126.474 483.223 126.353 483.138 126.315L482.624 126.09Z" fill="black"/>
<path d="M489.753 115.978C489.712 115.742 489.791 115.503 489.961 115.336L494.111 111.291C494.823 110.598 495.074 109.58 494.766 108.635C494.459 107.69 493.657 107.015 492.674 106.872L486.94 106.039C486.704 106.005 486.499 105.857 486.394 105.641L483.829 100.445C483.39 99.5532 482.5 99 481.506 99C480.514 99 479.622 99.5533 479.183 100.444L476.619 105.641C476.513 105.855 476.309 106.004 476.073 106.038L470.338 106.871C469.355 107.014 468.553 107.69 468.246 108.635C467.94 109.58 468.19 110.598 468.902 111.29L473.051 115.335C473.222 115.502 473.301 115.743 473.26 115.978L472.28 121.689C472.112 122.668 472.507 123.639 473.311 124.223C473.765 124.553 474.296 124.72 474.831 124.72C475.243 124.72 475.657 124.621 476.04 124.419L481.17 121.723C481.381 121.612 481.633 121.612 481.845 121.723L486.974 124.419C487.853 124.881 488.899 124.807 489.704 124.223C490.507 123.64 490.902 122.668 490.735 121.688L489.753 115.978ZM487.915 116.293L488.895 122.004C488.963 122.406 488.715 122.634 488.605 122.714C488.496 122.795 488.201 122.959 487.841 122.769L482.712 120.073C481.956 119.677 481.055 119.677 480.299 120.073L475.17 122.77C474.81 122.96 474.515 122.795 474.406 122.715C474.296 122.636 474.048 122.407 474.118 122.006L475.097 116.294C475.241 115.454 474.962 114.596 474.352 114.001L470.202 109.957C469.911 109.673 469.976 109.341 470.019 109.213C470.061 109.084 470.202 108.777 470.605 108.718L476.339 107.885C477.184 107.763 477.913 107.233 478.291 106.468L480.855 101.271C481.036 100.905 481.37 100.865 481.506 100.865C481.642 100.865 481.978 100.905 482.157 101.27L484.721 106.466C485.099 107.232 485.828 107.761 486.673 107.885L492.407 108.718C492.81 108.777 492.951 109.082 492.992 109.212C493.034 109.341 493.1 109.672 492.809 109.956L488.659 114.001C488.049 114.596 487.771 115.453 487.915 116.293L487.915 116.293Z" fill="black"/>
<text fill="black" xml:space="preserve" style="white-space: pre" font-family="Montserrat" font-size="13" font-weight="300" letter-spacing="0em"><tspan x="104" y="121.66">October 28, 2022</tspan></text>
<path fill-rule="evenodd" clip-rule="evenodd" d="M54.6645 40.073C57.1786 40.073 59.4992 40.6525 61.6261 41.6178C62.2064 42.0041 62.5932 42.1974 62.7864 42.3903C64.1402 40.4592 65.8804 37.5623 67.8142 37.1761C73.6155 36.0174 74.9695 40.8454 76.3228 44.1281C79.8037 52.2387 82.7045 51.6596 84.6382 56.1019C87.3455 62.8609 80.3839 66.5303 77.0963 63.4401C72.4552 59.1916 71.6817 51.6603 69.748 43.7425C69.748 42.97 68.7808 42.1976 67.8142 43.3562C67.2339 43.9358 66.8471 44.7082 66.4604 45.4807C69.7481 49.15 71.4883 54.1709 72.2617 58.8061C73.8087 70.5858 68.0074 82.5597 54.6643 81.9797C49.8296 82.1731 45.1886 80.6278 41.708 77.1518C37.26 72.3238 36.0997 65.1779 37.0669 58.8058C37.6473 53.9778 39.581 48.9568 42.8682 45.4803C42.2879 44.7079 41.9011 43.9355 41.3212 43.3559C40.3541 42.1972 39.5806 42.9697 39.3875 43.7421C37.6469 51.6599 36.6802 59.192 32.2323 63.4397C28.7514 66.5295 21.7895 62.8602 24.6903 56.1015C26.431 51.6597 29.3313 52.2393 32.8122 44.1277C34.166 40.8446 35.7131 36.0171 41.3208 37.1757C43.2545 37.562 44.9952 40.4589 46.3486 42.3899C48.6692 40.8451 51.3765 40.0726 54.664 40.0726L54.6645 40.073ZM46.7358 53.2055C47.1226 53.2055 47.7029 53.3988 47.8961 53.785H47.7025C46.929 53.785 46.3487 54.3646 46.3487 55.137C46.3487 55.9094 46.929 56.6818 47.7025 56.6818C48.2829 56.6818 48.6696 56.2956 49.0563 55.7161V56.4885C49.0563 58.0334 47.896 59.5782 46.7358 59.5782C45.3819 59.5782 44.4152 58.0334 44.4152 56.4885C44.4152 54.7502 45.3823 53.2054 46.7358 53.2054L46.7358 53.2055ZM63.173 53.2055C63.5597 53.2055 63.9465 53.3988 64.3333 53.785H64.1397C63.3661 53.785 62.5927 54.3646 62.5927 55.137C62.5927 55.9094 63.3662 56.6818 64.1397 56.6818C64.72 56.6818 65.1068 56.2956 65.2999 55.7161C65.4935 55.9094 65.4935 56.1023 65.4935 56.4885C65.4935 58.0334 64.3333 59.5782 63.173 59.5782C61.8192 59.5782 60.6589 58.0334 60.6589 56.4885C60.6589 54.7502 61.8192 53.2054 63.173 53.2054V53.2055ZM54.8576 64.5992C59.1119 64.5992 62.3995 66.7237 62.3995 69.6202C62.3995 72.3237 59.3055 74.6411 55.4379 74.6411V77.1517C56.4051 77.1517 57.3717 76.7655 58.3389 75.993C59.1124 75.6068 59.6927 76.5726 59.1124 76.9588C57.7586 77.9246 56.2115 78.3108 54.8581 78.3108C53.5043 78.3108 52.1508 77.9245 50.797 76.9588C50.2166 76.5726 50.797 75.6069 51.3774 75.993C52.3445 76.7655 53.3111 77.1517 54.4714 77.1517V74.6411C50.4103 74.6411 47.3161 72.3237 47.3161 69.6202C47.3161 66.7232 50.797 64.5992 54.8581 64.5992H54.8576ZM55.8247 66.3375L55.6311 67.8824C54.8576 67.689 54.2773 67.689 53.6974 67.8824V66.3375H55.8247H55.8247ZM56.7918 66.5308C58.5325 66.7242 61.4328 68.0757 60.4662 70.9726C60.4662 69.4278 58.7255 68.2691 56.5986 67.8829L56.7922 66.531L56.7918 66.5308ZM54.6644 42.1985C73.229 41.6189 77.6769 80.822 54.6644 79.8563C31.4588 80.822 36.0999 41.6197 54.6644 42.1985Z" fill="black"/>
</svg>
