<svg width="157" height="153" viewBox="0 0 157 153" fill="none" xmlns="http://www.w3.org/2000/svg">
<path d="M29.6099 13.1802C31.5336 14.0213 33.0694 15.5582 33.9105 17.4808L35.127 20.2619C35.3285 20.7212 35.9844 20.7212 36.1872 20.2619L37.4037 17.4808C38.2448 15.557 39.7818 14.0213 41.7043 13.1802L44.4854 11.9636C44.9448 11.7621 44.9448 11.1062 44.4854 10.9035L41.7106 9.68688C39.7868 8.8458 38.2511 7.3088 37.41 5.38629L36.1872 2.60519C35.9856 2.14584 35.3298 2.14584 35.127 2.60519L33.9105 5.38629C33.0694 7.31002 31.5324 8.8458 29.6099 9.68688L26.8288 10.9035C26.3694 11.105 26.3694 11.7608 26.8288 11.9636L29.6099 13.1802Z" fill="black"/>
<path d="M15.2201 91.1833C13.2963 90.3423 11.7606 88.8053 10.9195 86.8827L9.70291 84.1017C9.50139 83.6423 8.84554 83.6423 8.64278 84.1017L7.4262 86.8827C6.58511 88.8065 5.04812 90.3423 3.12561 91.1833L0.344509 92.3999C-0.114836 92.6014 -0.114836 93.2573 0.344509 93.46L3.12561 94.6766C5.04934 95.5177 6.58511 97.0547 7.4262 98.9772L8.64278 101.758C8.84429 102.218 9.50015 102.218 9.70291 101.758L10.9195 98.9772C11.7606 97.0535 13.2976 95.5177 15.2201 94.6766L18.0012 93.46C18.4605 93.2585 18.4605 92.6027 18.0012 92.3999L15.2201 91.1833Z" fill="black"/>
<path d="M115.295 13.1802C117.219 14.0213 118.755 15.5582 119.596 17.4808L120.812 20.2619C121.014 20.7212 121.67 20.7212 121.872 20.2619L123.089 17.4808C123.93 15.557 125.467 14.0213 127.389 13.1802L130.171 11.9636C130.63 11.7621 130.63 11.1062 130.171 10.9035L127.396 9.68688C125.472 8.8458 123.936 7.3088 123.095 5.38629L121.879 2.60519C121.677 2.14584 121.021 2.14584 120.818 2.60519L119.602 5.38629C118.761 7.31002 117.224 8.8458 115.301 9.68688L112.52 10.9035C112.061 11.105 112.061 11.7608 112.52 11.9636L115.295 13.1802Z" fill="black"/>
<path d="M156.651 92.3977L153.87 91.1811C151.946 90.3401 150.41 88.8031 149.569 86.8805L148.353 84.0995C148.151 83.6401 147.495 83.6401 147.292 84.0995L146.076 86.8805C145.235 88.8043 143.698 90.3401 141.775 91.1811L138.994 92.3977C138.535 92.5992 138.535 93.2551 138.994 93.4578L141.775 94.6744C143.699 95.5155 145.235 97.0525 146.076 98.975L147.292 101.756C147.494 102.215 148.15 102.215 148.353 101.756L149.569 98.975C150.41 97.0513 151.947 95.5155 153.87 94.6744L156.651 93.4578C157.116 93.2563 157.116 92.6005 156.651 92.3977Z" fill="black"/>
<path d="M84.5481 141.552C82.6244 140.711 81.0886 139.174 80.2475 137.252L79.0309 134.471C78.8294 134.011 78.1735 134.011 77.9708 134.471L76.7542 137.252C75.9131 139.176 74.3761 140.711 72.4536 141.552L69.6725 142.769C69.2132 142.971 69.2132 143.626 69.6725 143.829L72.4536 145.046C74.3773 145.887 75.9131 147.424 76.7542 149.346L77.9708 152.127C78.1723 152.587 78.8282 152.587 79.0309 152.127L80.2475 149.346C81.0886 147.423 82.6256 145.887 84.5481 145.046L87.3292 143.829C87.7885 143.628 87.7885 142.972 87.3292 142.769L84.5481 141.552Z" fill="black"/>
<path d="M86.5507 5.0048L100.428 33.125C101.735 35.7721 104.264 37.6108 107.185 38.0363L138.216 42.5397C145.578 43.6111 148.517 52.6552 143.19 57.8468L120.739 79.7314C118.625 81.7953 117.66 84.7667 118.159 87.6767L123.458 118.584C124.715 125.919 117.021 131.508 110.438 128.044L82.6818 113.454C80.0684 112.079 76.9457 112.079 74.3273 113.454L46.5714 128.044C39.9879 131.503 32.2893 125.914 33.5508 118.584L38.8501 87.6767C39.3495 84.7667 38.3845 81.7943 36.2705 79.7314L13.8191 57.8468C8.49223 52.6552 11.431 43.6096 18.7929 42.5397L49.8231 38.0315C52.7443 37.6059 55.2739 35.7723 56.5793 33.1202L70.4571 5C73.7439 -1.6675 83.2599 -1.6675 86.5505 5.005L86.5507 5.0048Z" fill="black"/>
</svg>
