<svg width="156" height="157" viewBox="0 0 156 157" fill="none" xmlns="http://www.w3.org/2000/svg">
<path d="M29.4213 18.1071C31.3327 18.9428 32.8587 20.47 33.6945 22.3803L34.9033 25.1437C35.1035 25.6001 35.7552 25.6001 35.9567 25.1437L37.1655 22.3803C38.0012 20.4688 39.5284 18.9428 41.4387 18.1071L44.2021 16.8982C44.6585 16.698 44.6585 16.0463 44.2021 15.8449L41.4449 14.636C39.5334 13.8003 38.0074 12.2731 37.1717 10.3628L35.9567 7.59946C35.7564 7.14304 35.1048 7.14304 34.9033 7.59946L33.6945 10.3628C32.8587 12.2743 31.3315 13.8003 29.4213 14.636L26.6579 15.8449C26.2014 16.0451 26.2014 16.6968 26.6579 16.8982L29.4213 18.1071Z" fill="black"/>
<path d="M15.1231 95.6134C13.2117 94.7777 11.6857 93.2505 10.8499 91.3402L9.6411 88.5768C9.44088 88.1204 8.7892 88.1204 8.58773 88.5768L7.3789 91.3402C6.54317 93.2517 5.01597 94.7777 3.1057 95.6134L0.342315 96.8223C-0.114105 97.0225 -0.114105 97.6742 0.342315 97.8756L3.1057 99.0845C5.01718 99.9202 6.54317 101.447 7.3789 103.358L8.58773 106.121C8.78796 106.577 9.43964 106.577 9.6411 106.121L10.8499 103.358C11.6857 101.446 13.2129 99.9202 15.1231 99.0845L17.8865 97.8756C18.3429 97.6754 18.3429 97.0237 17.8865 96.8223L15.1231 95.6134Z" fill="black"/>
<path d="M114.561 18.1071C116.472 18.9428 117.998 20.47 118.834 22.3803L120.043 25.1437C120.243 25.6001 120.895 25.6001 121.096 25.1437L122.305 22.3803C123.141 20.4688 124.668 18.9428 126.578 18.1071L129.341 16.8982C129.798 16.698 129.798 16.0463 129.341 15.8449L126.584 14.636C124.673 13.8003 123.147 12.2731 122.311 10.3628L121.102 7.59946C120.902 7.14304 120.25 7.14304 120.049 7.59946L118.84 10.3628C118.004 12.2743 116.477 13.8003 114.567 14.636L111.803 15.8449C111.347 16.0451 111.347 16.6968 111.803 16.8982L114.561 18.1071Z" fill="black"/>
<path d="M155.653 96.8201L152.89 95.6112C150.978 94.7755 149.452 93.2483 148.616 91.338L147.408 88.5746C147.207 88.1182 146.556 88.1182 146.354 88.5746L145.145 91.338C144.31 93.2495 142.782 94.7755 140.872 95.6112L138.109 96.8201C137.652 97.0203 137.652 97.672 138.109 97.8734L140.872 99.0823C142.784 99.918 144.31 101.445 145.145 103.355L146.354 106.119C146.554 106.575 147.206 106.575 147.408 106.119L148.616 103.355C149.452 101.444 150.979 99.918 152.89 99.0823L155.653 97.8734C156.116 97.6732 156.116 97.0215 155.653 96.8201Z" fill="black"/>
<path d="M84.0096 145.662C82.0981 144.826 80.5721 143.299 79.7364 141.388L78.5276 138.625C78.3274 138.169 77.6757 138.169 77.4742 138.625L76.2654 141.388C75.4297 143.3 73.9024 144.826 71.9922 145.662L69.2288 146.871C68.7724 147.071 68.7724 147.722 69.2288 147.924L71.9922 149.133C73.9037 149.968 75.4297 151.496 76.2654 153.406L77.4742 156.169C77.6744 156.626 78.3261 156.626 78.5276 156.169L79.7364 153.406C80.5721 151.494 82.0993 149.968 84.0096 149.133L86.773 147.924C87.2294 147.724 87.2294 147.072 86.773 146.871L84.0096 145.662Z" fill="black"/>
<path d="M122.342 91.2899C122.119 90.0202 122.542 88.733 123.461 87.8349L145.775 66.0897C149.602 62.3625 150.951 56.8856 149.295 51.804C147.646 46.7225 143.333 43.0959 138.047 42.3273L107.214 37.8478C105.944 37.6638 104.846 36.8678 104.278 35.7087L90.4885 7.76767C88.128 2.97456 83.3413 0 77.9987 0C72.6608 0 67.8693 2.97482 65.5076 7.76671L51.7183 35.7078C51.1499 36.8606 50.0518 37.6578 48.782 37.8419L17.9495 42.3214C12.6616 43.09 8.34988 46.7226 6.70071 51.8041C5.05163 56.8857 6.39975 62.3626 10.2276 66.0838L32.5361 87.829C33.4551 88.7319 33.8792 90.024 33.6616 91.2887L28.3896 121.994C27.4867 127.26 29.6096 132.48 33.9338 135.622C36.3738 137.394 39.2318 138.296 42.107 138.296C44.3195 138.296 46.548 137.761 48.6089 136.674L76.1879 122.177C77.3246 121.581 78.679 121.581 79.8206 122.177L107.4 136.674C112.124 139.159 117.746 138.759 122.075 135.621C126.393 132.484 128.521 127.259 127.619 121.993L122.342 91.2899ZM112.458 92.9838L117.724 123.688C118.092 125.849 116.76 127.076 116.169 127.51C115.579 127.944 113.997 128.824 112.058 127.804L84.4789 113.307C80.4171 111.179 75.5696 111.179 71.5091 113.307L43.93 127.81C41.9912 128.829 40.4091 127.944 39.8185 127.515C39.2279 127.086 37.8958 125.855 38.2702 123.698L43.5357 92.9876C44.3105 88.4696 42.812 83.8554 39.53 80.658L17.2165 58.9127C15.6507 57.3855 16.0014 55.6033 16.2303 54.9121C16.4591 54.2209 17.2165 52.5715 19.3841 52.2544L50.2167 47.7749C54.7573 47.117 58.6796 44.2655 60.708 40.1527L74.4974 12.2116C75.4687 10.2405 77.2682 10.029 77.9982 10.029C78.7282 10.029 80.5327 10.2405 81.4965 12.2079L95.2859 40.1439C97.3143 44.2617 101.237 47.1083 105.777 47.7712L136.61 52.2507C138.777 52.5678 139.535 54.2119 139.757 54.9083C139.98 55.6048 140.337 57.3819 138.771 58.909L116.458 80.6603C113.177 83.8564 111.683 88.4642 112.458 92.9835L112.458 92.9838Z" fill="black"/>
</svg>
