<svg width="136" height="120" viewBox="0 0 136 120" fill="none" xmlns="http://www.w3.org/2000/svg">
<path fill-rule="evenodd" clip-rule="evenodd" d="M64.5016 88.0015C62.4701 88.0015 60.4377 87.233 58.8783 85.697L26.3733 53.6892C23.2293 50.5855 23.1976 45.5212 26.3097 42.3856C29.4051 39.2257 34.4776 39.209 37.6216 42.3136L64.4459 68.705L122.327 10.3615C125.446 7.24104 130.502 7.21746 133.639 10.3213C136.774 13.4494 136.791 18.5134 133.67 21.6416L70.1754 85.6401C68.6067 87.2079 66.5509 88.0007 64.5026 88.0007M111.999 64.0007C107.584 64.0007 103.999 67.5767 103.999 72.0004V100.792C103.999 103.904 100.407 103.999 99.999 103.999H19.9997C19.5921 103.999 15.9994 103.904 15.9994 100.792V19.9997C15.9994 17.7999 17.7916 16.0003 19.9997 16.0003H96.0004C100.416 16.0003 104 12.4243 104 7.99971C104 3.57579 100.416 0 96.0004 0H19.9997C8.97579 0 0 8.96829 0 19.9997V100.792C0 111.56 8.784 120 19.9997 120H99.999C111.216 120 120 111.56 120 100.792V72.0004C120 67.5765 116.415 64.0007 111.999 64.0007Z" fill="black"/>
</svg>
