<svg width="110" height="110" viewBox="0 0 110 110" fill="none" xmlns="http://www.w3.org/2000/svg">
<path d="M97.7773 6.11082H12.2227C8.87525 6.11082 6.11082 8.87525 6.11082 12.2227V97.7773C6.11082 101.125 8.87525 103.889 12.2227 103.889H97.7773C101.125 103.889 103.889 101.125 103.889 97.7773V12.2227C103.889 8.87525 101.125 6.11082 97.7773 6.11082ZM97.7773 0C104.5 0 110 5.50005 110 12.2227V97.7773C110 104.5 104.5 110 97.7773 110H12.2227C5.50005 110 0 104.5 0 97.7773V12.2227C0 5.50005 5.50005 0 12.2227 0H97.7773Z" fill="black"/>
</svg>
